<?xml version="1.0" encoding="utf-8"?>
<!-- Generator: Adobe Illustrator 25.2.3, SVG Export Plug-In . SVG Version: 6.00 Build 0)  -->
<svg version="1.1" id="Layer_1" xmlns="http://www.w3.org/2000/svg" xmlns:xlink="http://www.w3.org/1999/xlink" x="0px" y="0px"
	 viewBox="0 0 64 64" style="enable-background:new 0 0 64 64;" xml:space="preserve">
<style type="text/css">
	.st0{fill:#FFFFFF;}
</style>
<g id="Layer_6">
	<path class="st0" d="M33.9,57.8c-0.8,3.6-4.4,5.8-8,4.9c-3.6-0.8-5.8-4.4-4.9-8c0.8-3.6,4.4-5.8,8.2-4.9
		C32.6,50.6,34.8,54.3,33.9,57.8z M31.5,12.5c0.4-2.3,0.7-4.5,1-5.6c1-4.3,4.2-6.3,8.1-5.4c3.8,0.9,5.6,4,4.7,7.9
		c-0.3,1-0.3,1-2,5.9L32.2,46.4l-4.7-1.1L31.5,12.5z"/>
</g>
</svg>
