<?xml version="1.0" encoding="utf-8"?>
<!-- Generator: Adobe Illustrator 25.2.3, SVG Export Plug-In . SVG Version: 6.00 Build 0)  -->
<svg version="1.1" id="Layer_1" xmlns="http://www.w3.org/2000/svg" xmlns:xlink="http://www.w3.org/1999/xlink" x="0px" y="0px"
	 viewBox="0 0 1920 1080" style="enable-background:new 0 0 1920 1080;" xml:space="preserve">
<style type="text/css">
	.st0{fill:#01788B;}
	.st1{fill:#FFFFFF;}
</style>
<rect x="1.6" y="1.1" class="st0" width="1915.8" height="1077.3"/>
<g>
	<g>
		<path class="st1" d="M551.4,383.8c0.2,19.2,0.2,57.1-0.2,113.6c-0.5,60.3-0.7,92.9-0.7,98.2c0,2.7-1.7,4.5-5,5
			c-3.5,0.7-7.7,0.7-13,0.7c-6-0.2-9.5-0.2-11,0c-2.5,0.2-3.5-2-3.5-7l0.2-84.7c-0.2-2.5-1.5-3.7-3.5-4.2c-1.7-0.2-6.7-0.2-15,0
			c-1.5,0-2.2,1.5-2.5,4.2c0.2,22.4,0,50.8-0.7,85.2c-0.2,3.2-2.7,5.2-7.5,5.7c-7.7,1-15.4,1.2-23.2,0.5c-2.7-0.2-4.2-2.2-4.5-6.2
			c-1.7-45.8-2-116.6-0.5-211.8c0-3,1-4.7,2.7-4.7h29.9c2.7,0.2,4.2,1.7,4.2,4.7c0-0.2,0,11.2,0,34.1c-0.2,17.4-0.2,30.9,0,40.6
			c0,1.7,0,2.7,0.2,3.2c0.2,1,0.7,1.7,1.5,2c4,1,9,1,15-0.2c2-0.2,3-2,3-5c0-19.9,0-45.1,0-75.5c0-2.5,0.7-3.7,2-3.5
			c7.5-0.2,17.4-0.5,29.4-0.5C550.5,378.8,551.4,380.6,551.4,383.8z"/>
		<path class="st1" d="M732.6,593.9c0,5-1,7.5-2.7,7.5h-7.7c-1.7,0-2.7-1.2-3.5-3.5s-2-5.5-3.5-9.5c-3.2,8.7-13.5,13-30.9,13
			c-18.9,0-32.1-4.7-39.9-14.2c-6.7-8.5-10-22.2-10-41.6l0.5-111.6c0.2-22.7,4-37.9,11.2-46.1c6.7-7.2,18.4-10.7,35.4-10.7
			c20.4,0,34.1,5.2,41.6,15.4c5.5,7.2,8.2,19.7,8.5,37.1c0.5,16.2,0.7,28.2,0.5,35.9c0,3-1.2,4.7-3.5,4.7c-6.5,0.2-16.4,0-29.9-0.2
			c-2.2,0-3.5-1.2-3.5-4c-0.2-10.7-0.7-21.4-1-32.1C693,419.2,689.5,412,684,412c-6.7,0-10.2,7.2-10.2,21.7v115.6
			c0,3,1,6.5,2.7,10.5c2.2,5,4.7,7.5,7.7,7.5c7.2,0,11-10,11-29.7v-14c0-2.5-0.7-3.5-2.2-3.2h-6.5c-1.7,0-2.5-0.7-2.5-2.5v-27.2
			c0-2.7,1.5-4.2,4.2-4.2c9.7,0,23.2,0,40.4,0.2c2.7,0,4.2,1.5,4.2,4.7L732.6,593.9L732.6,593.9z"/>
		<path class="st1" d="M842.7,383.8c0.2,19.2,0.2,57.1-0.2,113.6c-0.5,60.3-0.7,92.9-0.7,98.2c0,2.7-1.7,4.5-5,5
			c-3.5,0.7-7.7,0.7-13,0.7c-6-0.2-9.5-0.2-11,0c-2.5,0.2-3.5-2-3.5-7l0.2-84.7c-0.2-2.5-1.5-3.7-3.5-4.2c-1.7-0.2-6.7-0.2-14.9,0
			c-1.5,0-2.2,1.5-2.5,4.2c0.2,22.4,0,50.8-0.7,85.2c-0.2,3.2-2.7,5.2-7.5,5.7c-7.7,1-15.4,1.2-23.2,0.5c-2.7-0.2-4.2-2.2-4.5-6.2
			c-1.7-45.8-2-116.6-0.5-211.8c0-3,1-4.7,2.7-4.7h29.9c2.7,0.2,4.2,1.7,4.2,4.7c0-0.2,0,11.2,0,34.1c-0.2,17.4-0.2,30.9,0,40.6
			c0,1.7,0,2.7,0.2,3.2c0.2,1,0.7,1.7,1.5,2c4,1,9,1,14.9-0.2c2-0.2,3-2,3-5c0-19.9,0-45.1,0-75.5c0-2.5,0.7-3.7,2-3.5
			c7.5-0.2,17.4-0.5,29.4-0.5C842,378.8,842.7,380.6,842.7,383.8z"/>
		<path class="st1" d="M942.9,595.9c-0.2,3.2-2.5,5-7.2,5c1,0-11,0.2-36.4,0.5c-15.4,0.2-26.2,0.2-32.1-0.5
			c-2.7-0.2-4.2-2.5-4.2-6.5c-1-93.2-1.2-163.2-0.7-210c0-5.2,1.7-7.5,5-7c3.7,0.5,13.7,0.5,29.7,0c2.5-0.2,3.7,0.7,4.2,2.7
			c-0.2,1.7-0.2,3.5-0.2,5.2c0.5,8,0.7,32.9,0.2,74.5c-0.2,45.1-0.2,76.5,0.2,94.2c0.2,4.2,2.2,6.5,6.2,6.5h28.7
			c4.5,0,6.7,1.7,6.7,5C943.1,571.7,943.1,581.9,942.9,595.9z"/>
		<path class="st1" d="M1053.5,601.1c0.2,1-0.7,1.7-2.5,1.7c-2.5,0-7.2,0-14.2,0c-7-0.2-13-0.2-18.2-0.2c-1.7,0-3.7-6-6.2-17.9
			c-1.7-9-3.2-16.7-4.2-23.2c-0.2-1.2-1.2-2-3-2h-10.7c-1.2,0-2,0.7-2.5,2c-1.7,11.2-3.7,24.2-6.5,38.6c-0.7,1.7-1.5,2.5-2.5,2.5
			h-33.9c-3,0-4.2-1-3.5-3.2c6.2-37.4,12.5-75,18.7-112.6c12.2-72.5,19.7-108.6,21.9-108.9c10-0.5,19.7-0.5,29.7,0
			c2.2,0.2,9,36.4,20.4,108.9C1042.1,524.9,1047.8,563,1053.5,601.1z M1005.7,524.9c-2.7-20.9-4.5-31.4-5.2-31.4
			c-1,0-2,4.5-3.2,13.5c-0.7,6-1.5,11.7-2.2,17.9c-0.2,0.5,0.7,1,2.5,1.2c2,0.2,3.7,0.2,5.5,0.2
			C1004.7,526.1,1005.7,525.6,1005.7,524.9z"/>
		<path class="st1" d="M1166.4,384.1c-0.2-9.5-0.7,60.5-1.5,210.3c0,4.7-1.5,7.5-4.5,8c-8.7,1.5-17.9,1.5-27.7,0
			c-3.2-0.5-5.5-2.5-6.2-5.7c-6-27.4-13.2-58.6-21.2-93.4c-0.7-2.7-1.7-4.2-3.2-4.2c-1,0-1.7,2-1.7,5.7s0,16.7,0,38.9
			c-0.2,21.9-0.2,38.9-0.2,51.1c0,3.7-2.2,6-7,6.7c-3,0.7-7.2,1-12.5,0.7c-6.7-0.2-10.5-0.2-11.2-0.2c-3.7,0.2-5.5-2-5.7-6.2
			c-0.7-25.7-1-64.3-0.5-115.9c0.2-49.8,1-81.7,2-95.2c0.2-4.5,1.5-6.7,3.5-7c4.5-0.2,10.5-0.2,17.9,0c9.2,0.2,14.2,0.5,14.9,0.5
			c2.5,0,4.2,2,5,5.7c9.2,44.4,15.7,73,19.2,85.7c1.5,5,2.7,7.5,3.5,7.5c1.2,0,1.7-2.7,1.5-8.5c-0.7-14.9-1-43.1-1-85
			c0-4.2,1.7-6.2,5.5-6c6.2,0,14.7,0,25.7,0C1164.6,378.1,1166.4,380.1,1166.4,384.1z"/>
		<path class="st1" d="M1282.3,524.9c0,51.6-16.2,77.2-48.8,77.2h-36.9c-2.5,0-3.7-1.5-3.7-4.7v-216c0-2.7,1-4.2,3.2-4.5
			c6-0.2,19.7-0.5,41.1-0.2c16.2-0.2,28.4,7.7,36.1,23.9c6,12.7,9,29.2,9,49.6V524.9z M1247.1,514.4v-68.8c0-7.7-2-14.9-6.2-21.9
			c-4-7-8.5-10.2-13.2-10.2c-1.5,0-2.2,1.2-2.2,3.7c0,0.7,0,19.2,0,55.3c0,35.9,0,64.8,0,87c0,2.7,0.7,4.2,2,4.2
			c4.5,0.2,8.7-4.7,13-14.9C1244.9,538.6,1247.1,527.1,1247.1,514.4z"/>
	</g>
	<g>
		<path class="st1" d="M619.7,577.7c0,13.5-10.7,24.2-23.9,24.2c-13.5,0-24.2-10.7-24.2-24.2c0-13.5,10.7-23.9,24.7-23.9
			C609,553.5,619.7,564.5,619.7,577.7z M573.4,420.5c-0.7-8.5-1.2-16.2-1.2-20.7c0-15.9,9.5-25.9,24.2-25.9
			c14.2,0,22.9,9.5,22.9,24.2c0,4,0,4-2,22.2l-13.5,118.6h-17.2L573.4,420.5z"/>
		<path class="st1" d="M1385.9,411.2c0,2.5-1.5,3.7-4.7,3.7c-1.2,0-4,0-8.2-0.2c-4,0-7.2,0-10,0c-3.7,0-5.7,1.5-5.7,4.2l0.5,177.7
			c0,3-1,4.5-3,4.7c-6.5,1-16.9,0.7-31.4-0.2c-2.5-0.2-3.5-1.7-3.5-4.7l-0.2-177.7c0-2.5-1-3.7-3.2-3.7H1296c-3-0.2-4.5-1.5-4.5-3.7
			c0,2-0.2-1.7-0.5-11.2c-0.5-6.2-0.2-11,0.5-14.5c0.7-4.7,2.5-7.2,5-7.2c22.7-0.2,51.1-0.2,85,0c2.5,0,4,1.7,4.2,5
			C1385.9,394.3,1386.2,403.8,1385.9,411.2z"/>
		<path class="st1" d="M1485.1,558c0,30.9-14.7,46.1-44.1,46.1c-15.2,0-26.2-3.7-32.6-11.5c-6.2-7.2-9.5-18.7-9.5-34.6V430.9
			c0-19.9,4-34.1,12.2-42.6c6.7-7,16.7-10.5,29.9-10.5c14.2,0,24.7,3,31.4,9c8.5,7.7,12.7,21.2,12.7,40.6V558z M1450.2,545.8V434.4
			c0-10.7-2.5-16.2-7.7-16.2c-5.7,0-8.5,5.5-8.5,16.4V546c0,6,0.7,10,2,11.5c1.2,1.5,3.5,2.2,6.5,2.2
			C1447.7,559.7,1450.2,555,1450.2,545.8z"/>
		<path class="st1" d="M1666.2,382.3c-3.7,30.4-9.2,65-15.9,103.7c-12.2,69-18.7,105.4-19.4,109.4c-0.5,3-2,4.7-4,5
			c-7.5,1-16.4,1-26.7,0c-2.5-0.2-3.7-1.5-4.2-4.2c-3-29.7-6.5-62.8-10.7-99.2c-0.5-3.7-1.2-5.5-2-5.5c-0.7,0-1.5,1.7-2.2,5.2
			c-1.2,7.2-3.2,24.2-5.7,51.1c-2.7,28.7-4.5,44.6-4.7,47.3c-0.5,2.7-2,4.5-4.5,4.7c-9.2,1-18.4,1.2-28.2,0.2
			c-2.5-0.2-4-1.7-4.5-4.7c-5.2-30.1-10.2-60-15.4-89.9c-8.7-51.6-14.5-92.7-17.7-123.8c-0.5-3.7,0.7-5.5,3.5-5.5h29.4
			c3,0.2,5,2.5,5.5,6c0.5,3.7,4.5,36.1,11.7,97.4c0.2,2,0.7,3,1.7,3c0.7,0,1.5-1,2-3.2c1-17.9,4.5-50.3,10-97.9
			c0.5-3.7,2.2-5.5,5-5.2c6,0,12.2,0,18.2,0c9,0.2,13.7,2.5,14,6c2.5,24.4,6.2,59.3,11,104.4c0.2,2.7,0.7,4.2,1.7,4.2
			c1.5,0,2.5-1.7,3-5.2c1.7-11.7,4.2-31.4,7.2-59.3c3-27.7,4.7-42.6,5-44.6c0.5-3.5,2.5-5.2,6-5c8-0.2,17.4-0.5,28.4-0.5
			C1666,376.9,1666.7,378.8,1666.2,382.3z"/>
		<path class="st1" d="M1779.6,384.1c-0.2-9.5-0.7,60.5-1.5,210.3c0,4.7-1.5,7.5-4.5,8c-8.7,1.5-17.9,1.5-27.7,0
			c-3.2-0.5-5.5-2.5-6.2-5.7c-6-27.4-13.2-58.6-21.2-93.4c-0.7-2.7-1.7-4.2-3.2-4.2c-1,0-1.7,2-1.7,5.7s0,16.7,0,38.9
			c-0.2,21.9-0.2,38.9-0.2,51.1c0,3.7-2.2,6-7,6.7c-3.2,0.7-7.2,1-12.5,0.7c-6.5-0.2-10.5-0.2-11.2-0.2c-3.7,0.2-5.5-2-5.7-6.2
			c-0.7-25.7-1-64.3-0.5-115.9c0.2-49.8,1-81.7,2-95.2c0.2-4.5,1.5-6.7,3.5-7c4.5-0.2,10.5-0.2,17.9,0c9.2,0.2,14.2,0.5,14.9,0.5
			c2.5,0,4.2,2,5,5.7c9.2,44.4,15.7,73,19.2,85.7c1.5,5,2.7,7.5,3.5,7.5c1.2,0,1.7-2.7,1.5-8.5c-0.7-14.9-1-43.1-1-85
			c0-4.2,1.7-6.2,5.5-6c6.2,0,14.7,0,25.7,0C1777.8,378.1,1779.6,380.1,1779.6,384.1z"/>
	</g>
	<g>
		<path class="st1" d="M128.1,376.9H98.2c-1.7,0-2.7,1.5-2.7,4.7C94,476.8,94.2,547.3,96,593.4c0.2,4,1.7,6.2,4.5,6.2
			c7.7,0.7,15.4,0.5,23.2-0.5c4.2-0.5,6.5-2,7.2-4.5V377.8C129.9,377.4,129.1,377.1,128.1,376.9z"/>
	</g>
	<path class="st1" d="M369.7,354.2c-31.1,0-58.3,17.9-72.5,44.6c-14.2-26.4-41.4-44.6-72.5-44.6c-45.8,0-83,39.1-83,87.2
		c0,7.7,1,15.4,2.7,22.7c0,0,18.7,82,152.5,163.7C430.8,546,449.5,464.1,449.5,464.1c1.7-7.2,2.7-14.7,2.7-22.7
		C452.7,393.3,415.6,354.2,369.7,354.2z"/>
</g>
</svg>
