<?xml version="1.0" encoding="utf-8"?>
<!-- Generator: Adobe Illustrator 25.2.3, SVG Export Plug-In . SVG Version: 6.00 Build 0)  -->
<svg version="1.1" xmlns="http://www.w3.org/2000/svg" xmlns:xlink="http://www.w3.org/1999/xlink" x="0px" y="0px"
	 viewBox="0 0 64 64" style="enable-background:new 0 0 64 64;" xml:space="preserve">
<style type="text/css">
	.st0{display:none;}
	.st1{display:inline;fill:#010101;}
	.st2{display:inline;fill:#03798B;}
	.st3{display:inline;}
	.st4{fill:#010101;}
	.st5{display:inline;fill:#E10E78;}
	.st6{display:inline;fill:#FFFFFF;}
	.st7{fill:#E10E78;}
	.st8{fill:#FFFFFF;}
</style>
<g id="Layer_1" class="st0">
	<path class="st1" d="M38.9,6.7c1.7,1.7,5.1,5.1,10.2,10.2c5.4,5.4,8.3,8.4,8.7,8.9c0.2,0.2,0.2,0.6,0,0.9c-0.2,0.4-0.6,0.8-1.1,1.2
		c-0.6,0.5-0.9,0.8-1,1c-0.2,0.2-0.5,0.1-0.9-0.3L47.2,21c-0.2-0.2-0.5-0.2-0.7-0.1c-0.2,0.1-0.6,0.6-1.3,1.3
		c-0.1,0.1-0.1,0.3,0.2,0.6c2,2,4.6,4.6,7.6,7.7c0.3,0.3,0.2,0.7-0.2,1.2c-0.6,0.8-1.3,1.5-2,2.1c-0.3,0.2-0.6,0.2-1-0.2
		c-4.3-4-10.6-10.3-19-18.9c-0.3-0.3-0.3-0.5-0.2-0.7l2.7-2.7c0.3-0.2,0.5-0.2,0.8,0c0,0,1,1,3.1,3.1c1.5,1.6,2.7,2.8,3.6,3.6
		c0.2,0.2,0.2,0.2,0.3,0.3c0.1,0.1,0.2,0.1,0.3,0c0.4-0.3,0.9-0.7,1.3-1.4c0.2-0.2,0.1-0.4-0.2-0.7c-1.8-1.8-4-4-6.8-6.8
		c-0.2-0.2-0.3-0.4-0.1-0.5c0.6-0.7,1.5-1.6,2.6-2.7C38.4,6.3,38.6,6.4,38.9,6.7z"/>
	<path class="st2" d="M62.4,18c1.2,1.2,1.2,3.1,0,4.3c-1.2,1.2-3.1,1.2-4.3,0c-1.2-1.2-1.2-3.1,0.1-4.4C59.3,16.8,61.2,16.8,62.4,18
		z M44.2,8c-0.8-0.7-1.6-1.3-2-1.7c-1.4-1.4-1.5-3.2-0.2-4.5c1.3-1.3,2.9-1.2,4.2,0.1c0.4,0.4,0.4,0.4,1.8,2.2l9.4,11.8l-1.5,1.5
		L44.2,8z"/>
	<g class="st3">
		<path class="st4" d="M4.4,39.9l-2.7,2.7c-0.2,0.2-0.1,0.4,0.2,0.7c8.4,8.7,14.7,15,19,18.9c0.4,0.3,0.7,0.4,1,0.2
			c0.8-0.6,1.4-1.3,2-2.1c0.3-0.4,0.4-0.8,0.2-1L4.8,39.8C4.6,39.8,4.5,39.9,4.4,39.9z"/>
	</g>
	<path class="st5" d="M22.2,18.1c-2.8,2.8-3.6,6.8-2.5,10.5c-3.6-1.1-7.7-0.3-10.5,2.5C5.1,35.2,5.3,42,9.6,46.3
		c0.7,0.7,1.5,1.3,2.3,1.8c0,0,9,5.7,28.3,1c4.7-19.3-1-28.3-1-28.3c-0.5-0.8-1.1-1.6-1.8-2.3C33.1,14.2,26.3,14,22.2,18.1z"/>
</g>
<g id="Layer_2" class="st0">
	<path class="st1" d="M38.9,6.7c1.7,1.7,5.1,5.1,10.2,10.2c5.4,5.4,8.3,8.4,8.7,8.9c0.2,0.2,0.2,0.6,0,0.9c-0.2,0.4-0.6,0.8-1.1,1.2
		c-0.6,0.5-0.9,0.8-1,1c-0.2,0.2-0.5,0.1-0.9-0.3L47.2,21c-0.2-0.2-0.5-0.2-0.7-0.1c-0.2,0.1-0.6,0.6-1.3,1.3
		c-0.1,0.1-0.1,0.3,0.2,0.6c2,2,4.6,4.6,7.6,7.7c0.3,0.3,0.2,0.7-0.2,1.2c-0.6,0.8-1.3,1.5-2,2.1c-0.3,0.2-0.6,0.2-1-0.2
		c-4.3-4-10.6-10.3-19-18.9c-0.3-0.3-0.3-0.5-0.2-0.7l2.7-2.7c0.3-0.2,0.5-0.2,0.8,0c0,0,1,1,3.1,3.1c1.5,1.6,2.7,2.8,3.6,3.6
		c0.2,0.2,0.2,0.2,0.3,0.3c0.1,0.1,0.2,0.1,0.3,0c0.4-0.3,0.9-0.7,1.3-1.4c0.2-0.2,0.1-0.4-0.2-0.7c-1.8-1.8-4-4-6.8-6.8
		c-0.2-0.2-0.3-0.4-0.1-0.5c0.6-0.7,1.5-1.6,2.6-2.7C38.4,6.3,38.6,6.4,38.9,6.7z"/>
	<path class="st2" d="M62.4,18c1.2,1.2,1.2,3.1,0,4.3c-1.2,1.2-3.1,1.2-4.3,0c-1.2-1.2-1.2-3.1,0.1-4.4C59.3,16.8,61.2,16.8,62.4,18
		z M44.2,8c-0.8-0.7-1.6-1.3-2-1.7c-1.4-1.4-1.5-3.2-0.2-4.5c1.3-1.3,2.9-1.2,4.2,0.1c0.4,0.4,0.4,0.4,1.8,2.2l9.4,11.8l-1.5,1.5
		L44.2,8z"/>
	<g class="st3">
		<path class="st4" d="M4.4,39.9l-2.7,2.7c-0.2,0.2-0.1,0.4,0.2,0.7c8.4,8.7,14.7,15,19,18.9c0.4,0.3,0.7,0.4,1,0.2
			c0.8-0.6,1.4-1.3,2-2.1c0.3-0.4,0.4-0.8,0.2-1L4.8,39.8C4.6,39.8,4.5,39.9,4.4,39.9z"/>
	</g>
	<path class="st5" d="M22.2,18.1c-2.8,2.8-3.6,6.8-2.5,10.5c-3.6-1.1-7.7-0.3-10.5,2.5C5.1,35.2,5.3,42,9.6,46.3
		c0.7,0.7,1.5,1.3,2.3,1.8c0,0,9,5.7,28.3,1c4.7-19.3-1-28.3-1-28.3c-0.5-0.8-1.1-1.6-1.8-2.3C33.1,14.2,26.3,14,22.2,18.1z"/>
</g>
<g id="Layer_4" class="st0">
</g>
<g id="Layer_3" class="st0">
	<path class="st2" d="M60.8,53.1c-0.2,2.7-2.4,4.8-5.1,4.6c-2.7-0.2-4.8-2.4-4.6-5.2c0.2-2.7,2.4-4.7,5.3-4.6
		C58.9,48.1,61,50.4,60.8,53.1z M53.2,20.8c-0.1-1.7-0.1-3.3,0-4.2c0.2-3.2,2.2-5.1,5.2-5c2.9,0.2,4.5,2.2,4.4,5.1
		c0,0.8,0,0.8-0.7,4.5L58,45.1l-3.5-0.2L53.2,20.8z"/>
	<path class="st5" d="M41.3,8.8c-5.5,0-10.3,3.2-12.7,7.8C26,12,21.2,8.8,15.8,8.8c-8.1,0-14.6,6.9-14.6,15.3c0,1.4,0.2,2.7,0.5,4
		c0,0,3.3,14.4,26.8,28.8C52,42.5,55.3,28.1,55.3,28.1c0.3-1.3,0.5-2.6,0.5-4C55.8,15.7,49.3,8.8,41.3,8.8z"/>
	<path class="st6" d="M27.6,13.7c0,3.1,0,9.3,0,18.5c-0.1,9.8-0.1,15.1-0.1,16c0,0.4-0.3,0.7-0.8,0.8c-0.6,0.1-1.3,0.1-2.1,0.1
		c-1,0-1.5,0-1.8,0c-0.4,0-0.6-0.3-0.6-1.1l0-13.8c0-0.4-0.2-0.6-0.6-0.7c-0.3,0-1.1,0-2.4,0c-0.2,0-0.4,0.2-0.4,0.7
		c0,3.6,0,8.3-0.1,13.8c0,0.5-0.4,0.9-1.2,0.9c-1.3,0.2-2.5,0.2-3.8,0.1c-0.4,0-0.7-0.4-0.7-1c-0.3-7.4-0.3-18.9-0.1-34.4
		c0-0.5,0.2-0.8,0.4-0.8h4.9c0.4,0,0.7,0.3,0.7,0.8c0,0,0,1.8,0,5.5c0,2.8,0,5,0,6.6c0,0.3,0,0.4,0,0.5c0,0.2,0.1,0.3,0.2,0.3
		c0.6,0.2,1.5,0.2,2.4,0c0.3,0,0.5-0.3,0.5-0.8c0-3.2,0-7.3,0-12.3c0-0.4,0.1-0.6,0.3-0.6c1.2,0,2.8-0.1,4.8-0.1
		C27.4,12.9,27.6,13.2,27.6,13.7z"/>
	<path class="st6" d="M44.5,18.1c0,0.4-0.2,0.6-0.8,0.6c-0.2,0-0.6,0-1.3,0c-0.6,0-1.2,0-1.6,0c-0.6,0-0.9,0.2-0.9,0.7L40,48.2
		c0,0.5-0.2,0.7-0.5,0.8c-1.1,0.2-2.7,0.1-5.1,0c-0.4,0-0.6-0.3-0.6-0.8l0-28.8c0-0.4-0.2-0.6-0.5-0.6h-3.3c-0.5,0-0.7-0.2-0.7-0.6
		c0,0.3,0-0.3-0.1-1.8c-0.1-1,0-1.8,0.1-2.3c0.1-0.8,0.4-1.2,0.8-1.2c3.7,0,8.3,0,13.8,0c0.4,0,0.6,0.3,0.7,0.8
		C44.5,15.4,44.6,16.9,44.5,18.1z"/>
</g>
<g id="Layer_7">
	<rect x="-0.1" y="-0.1" class="st7" width="64.5" height="64.3"/>
</g>
<g id="Layer_5" class="st0">
	<path class="st6" d="M47.4-0.4c-6.5,0-12.2,4.3-15.2,10.6C29.2,3.9,23.5-0.4,17-0.4C7.4-0.4-0.3,8.9-0.3,20.4
		c0,1.8,0.2,3.7,0.6,5.4c0,0,3.9,19.5,31.9,39c28-19.5,31.9-39,31.9-39c0.4-1.7,0.6-3.5,0.6-5.4C64.7,8.9,57-0.4,47.4-0.4z"/>
	<path class="st5" d="M31.2,12.1c0,3.3,0,9.7,0,19.4C31.1,41.7,31,47.3,31,48.2c0,0.5-0.3,0.8-0.8,0.8c-0.6,0.1-1.3,0.1-2.2,0.1
		c-1,0-1.6,0-1.9,0c-0.4,0-0.6-0.3-0.6-1.2l0-14.4c0-0.4-0.3-0.6-0.6-0.7c-0.3,0-1.1,0-2.5,0c-0.3,0-0.4,0.3-0.4,0.7
		c0,3.8,0,8.7-0.1,14.5c0,0.6-0.5,0.9-1.3,1c-1.3,0.2-2.6,0.2-4,0.1c-0.5,0-0.7-0.4-0.8-1.1c-0.3-7.8-0.3-19.9-0.1-36.1
		c0-0.5,0.2-0.8,0.5-0.8h5.1c0.5,0,0.7,0.3,0.7,0.8c0,0,0,1.9,0,5.8c0,3,0,5.3,0,6.9c0,0.3,0,0.5,0,0.6c0,0.2,0.1,0.3,0.3,0.3
		c0.7,0.2,1.5,0.2,2.5,0c0.3,0,0.5-0.3,0.5-0.8c0-3.4,0-7.7,0-12.9c0-0.4,0.1-0.6,0.3-0.6c1.3,0,3-0.1,5-0.1
		C31,11.2,31.2,11.5,31.2,12.1z"/>
	<path class="st5" d="M49,16.7c0,0.4-0.3,0.6-0.8,0.6c-0.2,0-0.7,0-1.4,0c-0.7,0-1.2,0-1.7,0c-0.6,0-1,0.3-1,0.7l0.1,30.2
		c0,0.5-0.2,0.8-0.5,0.8c-1.1,0.2-2.9,0.1-5.3,0c-0.4,0-0.6-0.3-0.6-0.8l0-30.2c0-0.4-0.2-0.6-0.6-0.6h-3.5c-0.5,0-0.8-0.3-0.8-0.6
		c0,0.3,0-0.3-0.1-1.9c-0.1-1.1,0-1.9,0.1-2.5c0.1-0.8,0.4-1.2,0.8-1.2c3.9,0,8.7,0,14.5,0c0.4,0,0.7,0.3,0.7,0.8
		C49,13.8,49,15.5,49,16.7z"/>
</g>
<g id="Layer_6">
	<path class="st8" d="M34.2,59.5c-0.9,3.9-4.7,6.2-8.6,5.3c-3.9-0.9-6.2-4.7-5.3-8.6c0.9-3.9,4.7-6.2,8.8-5.2
		C32.8,51.8,35.1,55.7,34.2,59.5z M31.6,11c0.4-2.5,0.8-4.8,1.1-6c1.1-4.6,4.5-6.8,8.7-5.8c4.1,1,6,4.3,5,8.5
		c-0.3,1.1-0.3,1.1-2.1,6.3l-12,33.3l-5-1.2L31.6,11z"/>
</g>
</svg>
