<?xml version="1.0" encoding="utf-8"?>
<!-- Generator: Adobe Illustrator 25.2.3, SVG Export Plug-In . SVG Version: 6.00 Build 0)  -->
<svg version="1.1" id="Layer_1" xmlns="http://www.w3.org/2000/svg" xmlns:xlink="http://www.w3.org/1999/xlink" x="0px" y="0px"
	 viewBox="0 0 962.8 628" style="enable-background:new 0 0 962.8 628;" xml:space="preserve">
<style type="text/css">
	.st0{fill:#FFFFFF;}
</style>
<g>
	<path class="st0" d="M82.2,86.8H65.7v351.6h16.5c18.8,0,25.1-8.4,25.1-31.3v-289C107.3,95.1,101,86.8,82.2,86.8z M516.1,279
		c20.9-7.2,21.7-8,98.8-24.9c57.8-12.8,74.7-27.3,74.7-60.2c0-38.5-32.9-61-89.9-61c-22.5,0-31.3,1.6-47.4,9.6
		c25.7,10.4,36.9,24.1,36.9,47.4c0,31.3-24.9,55.4-57.8,55.4c-37.7,0-65.9-28.9-65.9-67.5c0-32.3,15.7-59.4,43.9-77.7h-299v121.4
		c31.3-37.6,63.4-52.2,110.7-52.2c43.9,0,78.7,14.6,95.4,41.1c9.7,16,14.6,39,14.6,74.5v122.2c0,23,6.3,31.3,25.1,31.3h11.6
		C457,421.9,451,401.5,451,377.8C451,328.8,474.3,294.3,516.1,279z M570.7,365c0,26.5,18.5,44.2,45,44.2c37.7,0,72.3-28.1,72.3-58.6
		v-59.4c-49,17.7-51.4,18.5-65.8,22.5C580.3,326.4,570.7,336,570.7,365z M691.9,425.2C659,464.5,618,483.8,565,483.8
		c-32.9,0-60.1-9.2-79.6-25.6v34h277.2c8.5,0,16-3.3,21.3-8.5C735.6,481.5,708.5,463.6,691.9,425.2z M275.1,234.8
		c-25.8,0-48,13.9-57.8,35.5c-4.9,9.8-7,25.1-7,52.2v84.6c0,23.7,6.3,31.3,25.8,31.3h18.1v53.7h27.9v-53.7H303
		c18.8,0,25.1-8.4,25.1-31.3V300.9c0-29.2-3.5-41.1-13.9-51.5C304.4,240.4,290.4,234.8,275.1,234.8z"/>
	<path class="st0" d="M793.9,304.8l-0.5-212.5c0.1-9.1,0.6-17.5,1.6-24.6c4.4-31.5,29.5-50.9,59.8-46.7
		c30.9,4.3,46.4,27.7,41.5,62.1c-1.2,8.3-2.8,15.9-4.4,23L836,310.7L793.9,304.8z M854.5,390.1c-3.9,27.9-29.6,47.3-57.5,43.4
		s-47.3-29.6-43.3-58.1c3.9-27.9,29.5-46.7,58.6-42.6C839.1,336.5,858.4,362.8,854.5,390.1z"/>
	<g>
		<path class="st0" d="M72.9,553.4c4.1-7.2,8.2-10.1,14.8-10.1c4.7,0,8.7,1.8,10.8,5c1.5,2.3,1.7,3.2,1.7,9.5v14.9
			c0.1,4.7,0.1,4.7,0.6,5.7s1.8,1.4,3.7,1.4h4.8v6H83.2v-6h2.3c2,0,3.3-0.5,3.8-1.4c0.5-0.8,0.5-0.8,0.5-5.8v-12.7
			c0-4.9-0.1-5.9-1-7.4c-1-1.8-3-2.9-5.5-2.9c-3.8,0-7.4,2.3-9.4,6c-0.8,1.5-1.1,3.3-1.1,7.1v9.8c0.1,5.1,0.1,5.1,0.5,5.8
			c0.5,0.9,1.8,1.4,3.8,1.4h2.2v6H53.8v-6h4.8c1.9,0,3.2-0.5,3.7-1.4s0.5-0.9,0.6-5.7v-33.8c-0.1-4.8-0.1-4.8-0.6-5.7
			c-0.6-1-1.7-1.4-3.7-1.4h-4.8v-6h19.1V553.4z"/>
		<path class="st0" d="M131,572.6c0.1,4.8,0.1,4.8,0.6,5.7c0.5,1,1.8,1.4,3.7,1.4h4.8v6h-27.9v-6h4c1.9,0,3.2-0.5,3.7-1.4
			s0.5-0.9,0.6-5.7v-14.9c-0.1-4.8-0.1-4.8-0.6-5.7c-0.5-1-1.7-1.4-3.7-1.4h-4v-6H131V572.6z M132.3,532.3c0,3.8-3.1,6.9-6.8,6.9
			c-3.8,0-6.8-3.1-6.8-6.9c0-3.7,3.1-6.8,6.9-6.8C129.2,525.4,132.3,528.6,132.3,532.3z"/>
		<path class="st0" d="M167,579.3c4.3-0.1,7.4-0.1,8.5-0.1c5.6,0,9.2,1.3,11.7,4.1c1.8,2.2,2.8,4.8,2.8,7.6
			c0,9.4-8.1,14.3-23.3,14.3c-15.6,0-23.5-3.6-23.5-10.6c0-4,2.7-6.3,8.5-7.4c-5.1-1.7-7.2-4.1-7.2-8c0-4.3,2.7-6.9,8.6-8.2
			c-4.9-3.9-6.8-7.2-6.8-12.1c0-9.2,7.9-15.6,19.3-15.6c6.1,0,9.9,1.3,14.6,4.9c2.8-3.6,5-4.9,8.5-4.9c5,0,8.8,4.1,8.8,9.5
			c0,4-2.2,6.4-5.7,6.4c-3.2,0-5.4-2.2-5.4-5.2c0-2.6,1.7-4.7,3.9-4.7c0.2,0,0.4,0,0.8,0.1c-1.1-1.4-1.9-1.7-3.3-1.7
			c-2,0-3.4,0.8-5.4,3c2.2,2.5,3,4.8,3,8.1c0,9.2-7.8,15.7-18.9,15.7c-3.7,0-6-0.5-10.3-2c-1.7,0.9-2.7,2.1-2.7,3.4
			c0,1.7,1.4,2.8,4.3,3.2c1,0.1,3.7,0.2,7.4,0.2H167z M156,589.2c-2.5,0.5-4.3,2.5-4.3,4.8c0,4,5.8,6.6,14.4,6.6
			c9.6,0,14.2-2.2,14.2-6.7c0-3-1.8-4.4-6.3-5c-1.5-0.1-6-0.3-9.8-0.3C159.3,588.6,158,588.7,156,589.2z M157.8,560
			c0,6.2,2.7,9.6,7.8,9.6c5.3,0,7.7-3.3,7.7-10.8c0-6.9-2.5-10.2-7.9-10.2C160.3,548.5,157.8,552.4,157.8,560z"/>
		<path class="st0" d="M216.3,553.4c4.1-7.2,8.2-10.1,14.8-10.1c4.7,0,8.7,1.8,10.8,5c1.5,2.3,1.7,3.2,1.7,9.5v14.9
			c0.1,4.7,0.1,4.7,0.6,5.7s1.8,1.4,3.7,1.4h4.8v6h-26.1v-6h2.3c2,0,3.3-0.5,3.8-1.4c0.5-0.8,0.5-0.8,0.5-5.8v-12.7
			c0-4.9-0.1-5.9-1-7.4c-1-1.8-3-2.9-5.5-2.9c-3.8,0-7.4,2.3-9.4,6c-0.8,1.5-1.1,3.3-1.1,7.1v9.8c0.1,5.1,0.1,5.1,0.5,5.8
			c0.5,0.9,1.8,1.4,3.8,1.4h2.2v6H197v-6h4.8c1.9,0,3.2-0.5,3.7-1.4s0.5-0.9,0.6-5.7v-33.8c-0.1-4.8-0.1-4.8-0.6-5.7
			c-0.6-1-1.7-1.4-3.7-1.4H197v-6h19.1v27.7H216.3z"/>
		<path class="st0" d="M273.4,572.6c0.1,4.8,0.1,4.8,0.6,5.7c0.5,1,1.8,1.4,3.7,1.4h4.1v6h-27.1v-6h4.1c1.9,0,3.2-0.5,3.7-1.4
			s0.5-0.9,0.6-5.7v-33.8c-0.1-4.8-0.1-4.8-0.6-5.7c-0.6-1-1.7-1.4-3.7-1.4h-4.1v-6h18.8v46.9H273.4z"/>
		<path class="st0" d="M333.4,570.9c0,5.4-0.1,6.9-0.4,9c-0.8,4.8-4.2,7.1-10.4,7.1c-6.5,0-9.5-2.2-10.3-7.3
			c-4,5.6-7.2,7.3-13.8,7.3c-8.2,0-13.6-4.3-13.6-10.8c0-6.3,5.1-10.6,15.2-13c7.3-1.7,9.5-2.4,10.9-3.6c1.4-1.1,1.9-2.3,1.9-4.2
			c0-4.3-4.2-7.5-10.1-7.5c-3.6,0-6.4,1.3-7.6,3.2c3.3,0.1,5.1,1.8,5.1,4.9c0,3.2-2.7,5.7-6.3,5.7c-4,0-6.8-2.9-6.8-7
			c0-7.1,6.6-11.4,17.4-11.4c7.8,0,13,1.8,15.9,5.6c1.6,2.3,2.2,4.5,2.2,9.6v15.7c0,5.7,0.3,6.6,2.3,6.6c1.9,0,2.7-1.1,2.7-3.7V571
			L333.4,570.9L333.4,570.9z M303,568.6c-3.6,1.5-5.2,3.5-5.2,6.4c0,3.2,2.3,5.2,5.9,5.2c5.6,0,8.6-4.4,8.6-12.4c0-1,0-1.7-0.1-3.3
			C309.2,566,309.2,566,303,568.6z"/>
		<path class="st0" d="M355.1,552.5c4.2-6.5,8.5-9.2,14.2-9.2c4.5,0,8.6,1.8,10.7,4.9c1.8,2.4,2.2,4.3,2.2,11.5v13
			c0.1,4.8,0.1,4.8,0.6,5.7c0.5,1,1.8,1.4,3.7,1.4h4.8v6h-26v-6h2.2c1.9,0,3.2-0.5,3.7-1.4c0.5-1,0.5-1,0.6-5.7v-11.2c0-6,0-6-1-7.6
			c-1.2-2-3.8-3.2-6.5-3.2c-2.9,0-5.7,1.4-7.4,3.7c-1.5,2-1.8,3.3-1.8,7.1v11.2c0.1,4.8,0.1,4.8,0.6,5.7c0.5,1,1.8,1.4,3.7,1.4h2.3
			v6h-26v-6h4.8c1.9,0,3.2-0.5,3.7-1.4s0.5-0.9,0.6-5.7v-14.9c-0.1-4.8-0.1-4.8-0.6-5.7c-0.5-1-1.7-1.4-3.7-1.4h-4.8v-6h19.5v7.8
			H355.1z"/>
		<path class="st0" d="M436.2,572.6c0.1,4.8,0.1,4.8,0.6,5.7c0.5,1,1.8,1.4,3.7,1.4h4.5v6h-19.2V579c-2.8,5.4-7.2,8-13.4,8
			c-11.4,0-18.1-8.1-18.1-21.9c0-13.2,7.1-21.9,17.9-21.9c3.4,0,6.7,0.9,8.9,2.5c1.4,0.9,2.4,2,4.7,4.9v-11.8
			c-0.1-4.8-0.1-4.8-0.6-5.7c-0.6-1-1.7-1.4-3.7-1.4h-4.8v-6h19.5V572.6z M405.9,564.7c0,9.4,3.3,14.7,8.9,14.7
			c6.7,0,11.1-5.9,11.1-14.8c0-8.6-4.2-14.2-10.6-14.2C409.3,550.3,405.9,555.6,405.9,564.7z"/>
		<path class="st0" d="M478,545.3v6.4h-12v19.9c0,4.5,0,4.5,0.3,5.5c0.4,1.5,1.5,2.4,3.2,2.4c3.3,0,3.7-1.2,3.7-12.8h6.3
			c0.2,3.1,0.2,4.4,0.2,5.9c0,9.6-3.8,14.3-11.7,14.3c-5,0-9-2.1-10.9-5.5c-1.3-2.4-1.4-3.4-1.4-9.9v-19.9H447v-6.4
			c8.1-0.4,12.2-5.8,12.4-16.9h6.7v16.9L478,545.3L478,545.3z"/>
		<path class="st0" d="M532.8,565.5c0,12.3-9.8,21.6-22.7,21.6c-13.7,0-24.2-9.4-24.2-21.6c0-12.4,10.3-22.1,23.6-22.1
			C522.5,543.3,532.8,553.2,532.8,565.5z M498,564.6c0,11.4,3.5,16.8,11,16.8c7.6,0,11.6-5.4,11.6-15.5c0-11.9-3.6-17.4-11.3-17.4
			C502,548.4,498,554.1,498,564.6z"/>
		<path class="st0" d="M555,544.6v6h-1.9c-2,0-3.1,0.6-3.1,1.9c0,0.8,0,0.8,1,4.1l6.8,21l6-21c0.9-3,0.9-3.1,0.9-4
			c0-1.4-1-2.1-2.9-2.1h-3.1v-6h22.4v6h-2.7c-1.9,0-2.9,0.6-2.9,1.9c0,0.3,0.4,1.6,1.1,4.1l6.5,21l6-21c0.3-1.1,0.7-3.4,0.7-4
			c0-1.4-0.8-2.1-2.6-2.1h-2.3v-6h18.8v6h-2.5c-2.4,0-3.1,1-5.2,7.7l-8.8,27.5h-11.5l-7.2-22.5l-6.7,22.5h-12.1l-8.9-27.5
			c-1.5-4.2-1.5-4.2-1.8-5c-0.7-1.6-2.3-2.6-4.3-2.6h-2.3v-6L555,544.6L555,544.6z"/>
		<path class="st0" d="M624.3,552.5c4.2-6.5,8.5-9.2,14.2-9.2c4.5,0,8.6,1.8,10.7,4.9c1.8,2.4,2.2,4.3,2.2,11.5v13
			c0.1,4.8,0.1,4.8,0.6,5.7c0.5,1,1.8,1.4,3.7,1.4h4.8v6h-26.1v-6h2.3c1.9,0,3.2-0.5,3.7-1.4c0.5-1,0.5-1,0.6-5.7v-11.2
			c0-6,0-6-1-7.6c-1.2-2-3.8-3.2-6.5-3.2c-2.9,0-5.7,1.4-7.4,3.7c-1.4,2-1.8,3.3-1.8,7.1v11.2c0.1,4.8,0.1,4.8,0.6,5.7
			c0.5,1,1.8,1.4,3.7,1.4h2.2v6h-26.1v-6h4.8c1.9,0,3.2-0.5,3.7-1.4s0.5-0.9,0.6-5.7v-14.9c-0.1-4.8-0.1-4.8-0.6-5.7
			c-0.5-1-1.7-1.4-3.7-1.4h-4.8v-6h19.5L624.3,552.5L624.3,552.5z"/>
		<path class="st0" d="M734.3,570.9c0,5.4-0.1,6.9-0.4,9c-0.8,4.8-4.2,7.1-10.4,7.1c-6.5,0-9.6-2.2-10.3-7.3
			c-4,5.6-7.2,7.3-13.8,7.3c-8.2,0-13.6-4.3-13.6-10.8c0-6.3,5-10.6,15.1-13c7.3-1.7,9.5-2.4,10.9-3.6c1.4-1.1,1.9-2.3,1.9-4.2
			c0-4.3-4.3-7.5-10.1-7.5c-3.6,0-6.4,1.3-7.6,3.2c3.3,0.1,5.1,1.8,5.1,4.9c0,3.2-2.7,5.7-6.3,5.7c-4,0-6.9-2.9-6.9-7
			c0-7.1,6.6-11.4,17.4-11.4c7.8,0,13,1.8,15.9,5.6c1.6,2.3,2.2,4.5,2.2,9.6v15.7c0,5.7,0.3,6.6,2.3,6.6c1.9,0,2.7-1.1,2.7-3.7V571
			L734.3,570.9L734.3,570.9z M703.9,568.6c-3.6,1.5-5.2,3.5-5.2,6.4c0,3.2,2.3,5.2,5.9,5.2c5.6,0,8.6-4.4,8.6-12.4
			c0-1,0-1.7-0.1-3.3C710.2,566,710.2,566,703.9,568.6z"/>
		<path class="st0" d="M756.4,550.6c2.5-5,5.9-7.3,10.5-7.3c5.6,0,9.8,4.2,9.8,9.9c0,4.7-3.2,8.2-7.5,8.2c-3.5,0-6.2-2.6-6.2-6.1
			c0-3.2,2-5.2,6-6c-1.2-0.4-1.8-0.6-2.6-0.6c-3.4,0-6.7,2.3-8.4,5.7c-1.4,2.8-1.5,4-1.5,9.9v8.4c0.1,4.8,0.1,4.8,0.6,5.7
			c0.5,1,1.8,1.4,3.7,1.4h4.8v6h-29v-6h4.8c1.9,0,3.2-0.5,3.7-1.4s0.5-0.9,0.6-5.7v-14.9c-0.1-4.8-0.1-4.8-0.6-5.7
			c-0.5-1-1.7-1.4-3.7-1.4h-4.8v-6h19.9L756.4,550.6L756.4,550.6z"/>
		<path class="st0" d="M810.6,545.3v6.4h-12v19.9c0,4.5,0,4.5,0.3,5.5c0.4,1.5,1.5,2.4,3.2,2.4c3.3,0,3.7-1.2,3.7-12.8h6.3
			c0.2,3.1,0.2,4.4,0.2,5.9c0,9.6-3.8,14.3-11.7,14.3c-5,0-9-2.1-10.9-5.5c-1.3-2.4-1.5-3.4-1.5-9.9v-19.9h-8.7v-6.4
			c8.1-0.4,12.2-5.8,12.4-16.9h6.7v16.9L810.6,545.3L810.6,545.3z"/>
		<path class="st0" d="M857.4,560.3h-6.1c-0.5-6.5-6-11.4-12.5-11.4c-3.5,0-6.1,2.2-6.1,5c0,2.1,1.1,3.3,3.5,4.1
			c0.6,0.3,0.6,0.3,6.9,1.6c11.1,2.5,16.4,7.1,16.4,14.2c0,7.9-6.2,13.1-15.8,13.1c-5.8,0-9.5-1.3-14.1-5l-1.4,3.7h-6.5V569h6.5
			c0.6,4.1,1.5,5.9,4.3,8.5c2.9,2.6,5.9,3.9,9.6,3.9c4.3,0,7-2.1,7-5.5c0-1.3-0.6-2.6-1.6-3.4c-1.4-1.1-2.3-1.4-8-2.6
			c-5.2-1.2-10-2.8-12.6-4.4c-3.2-1.9-5.2-5.7-5.2-9.6c0-7.2,6.6-12.4,15.6-12.4c5.2,0,8.7,1.3,12.6,4.8l1.4-3.5h6.1L857.4,560.3
			L857.4,560.3z"/>
	</g>
</g>
</svg>
