<?xml version="1.0" encoding="utf-8"?>
<!-- Generator: Adobe Illustrator 25.2.3, SVG Export Plug-In . SVG Version: 6.00 Build 0)  -->
<svg version="1.1" id="Layer_1" xmlns="http://www.w3.org/2000/svg" xmlns:xlink="http://www.w3.org/1999/xlink" x="0px" y="0px"
	 viewBox="0 0 714.5 590.8" style="enable-background:new 0 0 714.5 590.8;" xml:space="preserve">
<style type="text/css">
	.st0{fill:#E10E78;}
	.st1{fill:#FFFFFF;}
</style>
<path class="st0" d="M417.3,27.4c-35.1,0-65.7,20.2-81.7,50.3c-16-29.8-46.6-50.3-81.7-50.3c-51.7,0-93.5,44.1-93.5,98.3
	c0,8.7,1.1,17.4,3.1,25.6c0,0,21.1,92.4,171.8,184.5c150.8-92.1,171.8-184.5,171.8-184.5c2-8.1,3.1-16.6,3.1-25.6
	C510.8,71.5,469,27.4,417.3,27.4z"/>
<g>
	<path class="st1" d="M73.8,290.9c-4.8,0-8.6-0.7-11.3-2.2c-2.7-1.5-4.6-3.6-5.6-6.4c-1-2.8-1.6-6.2-1.6-10.2v-39.4h-6.8v-11.9h6.8
		v-21h18.4v21h10.1v11.9H73.7v37.7c0,2.2,0.5,3.7,1.6,4.6c1.1,0.9,2.6,1.4,4.5,1.4c1,0,1.9-0.1,2.8-0.2c0.9-0.1,1.7-0.2,2.4-0.3
		v14.2c-1.1,0.2-2.7,0.3-4.8,0.5C78.1,290.8,75.9,290.9,73.8,290.9z"/>
	<path class="st1" d="M92,290.2V193h18v34.2c2.6-2.5,5.2-4.4,8-5.6c2.8-1.3,5.8-1.9,9.1-1.9c2.8,0,5.1,0.7,6.9,2.2
		c1.8,1.4,3.1,3.3,4,5.7c0.9,2.4,1.3,5,1.3,8v54.7h-18.1v-51.7c0-1.9-0.3-3.4-0.8-4.3c-0.6-1-1.7-1.4-3.4-1.4c-1,0-2.1,0.3-3.3,0.8
		c-1.2,0.5-2.5,1.2-3.8,2.1v54.6H92z"/>
	<path class="st1" d="M170.7,291.4c-5.1,0-9.4-0.9-12.8-2.8c-3.4-1.9-6-4.6-7.8-8.3c-1.8-3.6-2.6-8-2.6-13.1v-23.3
		c0-5.3,0.9-9.7,2.6-13.3c1.8-3.6,4.4-6.3,7.9-8.2c3.5-1.9,7.8-2.8,12.7-2.8c5.3,0,9.6,1,12.8,2.9c3.3,1.9,5.7,4.7,7.3,8.4
		c1.6,3.7,2.3,8.2,2.3,13.4v12.1h-27.8v13.4c0,2,0.2,3.6,0.7,4.9c0.4,1.3,1.1,2.2,1.9,2.7c0.8,0.5,1.8,0.8,3,0.8
		c1.1,0,2.1-0.3,2.9-0.8c0.8-0.5,1.5-1.3,1.9-2.5c0.4-1.1,0.6-2.6,0.6-4.4V264h16.8v5.8c0,7-1.9,12.4-5.8,16.1
		C183.5,289.5,177.9,291.4,170.7,291.4z M165.3,247.8h10.9V241c0-2-0.2-3.6-0.6-4.9c-0.4-1.2-1-2.1-1.9-2.6
		c-0.8-0.5-1.9-0.8-3.2-0.8c-1.2,0-2.2,0.3-2.9,0.8c-0.8,0.6-1.3,1.5-1.7,2.9c-0.4,1.4-0.6,3.4-0.6,5.9V247.8z"/>
</g>
<g>
	<path class="st1" d="M496,290.4c-5,0-9.2-0.9-12.7-2.7c-3.5-1.8-6.2-4.4-8-7.9c-1.8-3.4-2.7-7.7-2.7-12.8v-25
		c0-5.1,0.9-9.4,2.7-12.8c1.8-3.4,4.5-6.1,8-7.9c3.5-1.8,7.8-2.7,12.7-2.7c5,0,9.2,0.9,12.7,2.7c3.5,1.8,6.2,4.4,8,7.9
		c1.8,3.4,2.8,7.7,2.8,12.8v25c0,5.1-0.9,9.4-2.8,12.8c-1.8,3.4-4.5,6.1-8,7.9C505.2,289.5,501,290.4,496,290.4z M496.2,278.2
		c1.5,0,2.7-0.4,3.5-1.3c0.8-0.8,1.3-2,1.6-3.5c0.2-1.5,0.4-3.2,0.4-5.1v-27.5c0-2-0.1-3.7-0.4-5.2c-0.2-1.4-0.8-2.6-1.6-3.5
		c-0.8-0.9-2-1.3-3.5-1.3c-1.5,0-2.7,0.4-3.5,1.3c-0.8,0.9-1.3,2-1.6,3.5c-0.3,1.4-0.4,3.2-0.4,5.2v27.5c0,1.9,0.1,3.6,0.4,5.1
		c0.3,1.5,0.8,2.6,1.6,3.5C493.5,277.7,494.6,278.2,496.2,278.2z"/>
	<path class="st1" d="M531,289.2v-57h-7v-12.4h7V215c0-4.2,0.4-7.8,1.3-10.8c0.8-3,2.5-5.4,5.1-7.1c2.6-1.7,6.5-2.5,11.8-2.5
		c1.6,0,3.1,0,4.5,0.1c1.4,0.1,3,0.2,4.7,0.5v13.4c-0.6-0.2-1.3-0.3-2.1-0.4c-0.8-0.1-1.5-0.2-2.2-0.2c-1.7,0-2.9,0.5-3.7,1.5
		c-0.8,1-1.2,2.6-1.2,4.7v5.5h9.2v12.4h-9.2v57H531z"/>
</g>
<g>
	<path class="st1" d="M66.5,417.1c-7,0-12.8-1.3-17.5-3.8c-4.7-2.6-8.2-6.4-10.6-11.6s-3.8-11.8-4.1-19.8l19.9-3.4
		c0.2,4.7,0.7,8.6,1.5,11.7c0.8,3.1,2,5.5,3.6,7c1.6,1.5,3.7,2.3,6.1,2.3c3,0,5-0.9,6.1-2.8c1.1-1.9,1.6-4,1.6-6.4
		c0-4.8-1.1-8.8-3.4-12c-2.3-3.2-5.3-6.5-9-9.7l-11.8-10.2c-4.2-3.5-7.6-7.6-10.3-12c-2.7-4.5-4-10-4-16.5c0-9.3,2.7-16.5,8.2-21.5
		c5.5-5,13-7.5,22.5-7.5c5.7,0,10.4,0.9,14,2.8c3.6,1.9,6.5,4.4,8.5,7.5c2,3.1,3.4,6.5,4.2,10.2c0.8,3.7,1.3,7.4,1.5,11l-19.7,2.9
		c-0.2-3.5-0.5-6.5-0.9-9.1c-0.4-2.6-1.3-4.7-2.5-6.2c-1.3-1.5-3.1-2.2-5.7-2.2c-2.7,0-4.7,1-6,3c-1.3,2-2,4.2-2,6.6
		c0,4,0.9,7.3,2.7,9.9c1.8,2.6,4.3,5.2,7.5,8.1l11.5,10.1c4.8,4.1,8.8,8.8,12.2,14.1c3.4,5.3,5.1,11.8,5.1,19.5
		c0,5.3-1.2,10.1-3.6,14.4c-2.4,4.3-5.8,7.7-10.1,10.1S72.4,417.1,66.5,417.1z"/>
	<path class="st1" d="M129.4,417c-5.8,0-10.7-1-14.8-3.2c-4.1-2.1-7.2-5.2-9.3-9.2c-2.1-4-3.1-9-3.1-15v-29.1c0-6,1-11,3.1-15
		c2.1-4,5.2-7.1,9.3-9.2c4.1-2.1,9.1-3.1,14.8-3.1c5.8,0,10.7,1,14.8,3.1c4.1,2.1,7.2,5.2,9.4,9.2c2.1,4,3.2,9,3.2,15v29.1
		c0,6-1.1,11-3.2,15c-2.1,4-5.3,7.1-9.4,9.2C140.1,416,135.2,417,129.4,417z M129.5,402.7c1.8,0,3.1-0.5,4.1-1.5
		c0.9-1,1.5-2.3,1.8-4.1c0.3-1.7,0.4-3.7,0.4-5.9v-32.1c0-2.3-0.1-4.3-0.4-6c-0.3-1.7-0.9-3-1.8-4.1c-0.9-1-2.3-1.5-4.1-1.5
		c-1.8,0-3.1,0.5-4.1,1.5c-0.9,1-1.6,2.4-1.9,4.1c-0.3,1.7-0.5,3.7-0.5,6v32.1c0,2.2,0.2,4.2,0.5,5.9c0.3,1.7,1,3.1,1.9,4.1
		C126.4,402.2,127.7,402.7,129.5,402.7z"/>
	<path class="st1" d="M180.6,417c-3.3,0-6-0.8-8.2-2.5c-2.2-1.7-3.8-3.9-4.8-6.7c-1-2.8-1.5-5.9-1.5-9.2v-63.8h21.1v60.8
		c0,2.2,0.4,3.9,1.1,5.1c0.7,1.2,2.1,1.8,4.1,1.8c1.1,0,2.3-0.3,3.6-0.9c1.3-0.6,2.5-1.3,3.9-2.2v-64.5h21.1v80.9h-21.1V408
		c-2.8,2.7-5.8,4.9-9,6.5C187.5,416.2,184.1,417,180.6,417z"/>
	<path class="st1" d="M256.9,416.4c-5.6,0-10-0.9-13.2-2.6c-3.2-1.7-5.4-4.2-6.6-7.5c-1.2-3.3-1.8-7.2-1.8-11.9v-45.9h-8v-13.9h8
		v-24.5h21.4v24.5h11.8v13.9h-11.8v44c0,2.5,0.6,4.3,1.9,5.4c1.3,1.1,3,1.6,5.2,1.6c1.1,0,2.2-0.1,3.2-0.2c1-0.1,2-0.3,2.8-0.4v16.5
		c-1.3,0.2-3.2,0.4-5.6,0.6C261.9,416.3,259.4,416.4,256.9,416.4z"/>
	<path class="st1" d="M278.2,415.6V302.2h21v39.9c3-2.9,6.1-5.1,9.4-6.6c3.3-1.5,6.8-2.2,10.6-2.2c3.3,0,5.9,0.8,8,2.5
		c2.1,1.7,3.7,3.9,4.7,6.6c1,2.8,1.5,5.9,1.5,9.3v63.8h-21.1v-60.3c0-2.2-0.3-3.9-1-5c-0.7-1.1-2-1.7-3.9-1.7
		c-1.1,0-2.4,0.3-3.8,0.9c-1.4,0.6-2.9,1.4-4.4,2.4v63.7H278.2z"/>
	<path class="st1" d="M370,417c-6,0-11-1.1-15-3.3c-4-2.2-7-5.4-9.1-9.7c-2.1-4.2-3.1-9.4-3.1-15.3v-27.2c0-6.2,1-11.3,3.1-15.5
		c2.1-4.2,5.1-7.3,9.2-9.5c4.1-2.2,9.1-3.3,14.8-3.3c6.2,0,11.2,1.1,15,3.4c3.8,2.2,6.6,5.5,8.5,9.8c1.8,4.3,2.7,9.5,2.7,15.7v14.1
		h-32.5v15.7c0,2.3,0.3,4.2,0.8,5.7c0.5,1.5,1.2,2.5,2.2,3.2c0.9,0.6,2.1,0.9,3.5,0.9c1.3,0,2.4-0.3,3.4-0.9c1-0.6,1.7-1.6,2.2-2.9
		c0.5-1.3,0.7-3,0.7-5.2v-7.7h19.6v6.7c0,8.2-2.2,14.5-6.7,18.8C384.9,414.9,378.4,417,370,417z M363.7,366.2h12.7v-8
		c0-2.3-0.2-4.2-0.7-5.7c-0.5-1.4-1.2-2.5-2.2-3.1c-1-0.6-2.2-0.9-3.7-0.9c-1.4,0-2.5,0.3-3.4,1c-0.9,0.7-1.6,1.8-2,3.4
		c-0.5,1.6-0.7,3.9-0.7,6.9V366.2z"/>
	<path class="st1" d="M422.2,417c-3.8,0-7.1-1-9.9-2.9c-2.8-2-4.8-4.4-6.2-7.4c-1.4-3-2.1-6.1-2.1-9.2c0-5,1-9.3,2.9-12.7
		c2-3.5,4.5-6.3,7.7-8.7c3.2-2.3,6.7-4.3,10.6-6s7.8-3.2,11.8-4.6v-7.6c0-1.8-0.1-3.3-0.4-4.6c-0.3-1.3-0.8-2.3-1.6-3
		c-0.8-0.7-1.9-1-3.4-1c-1.5,0-2.6,0.3-3.4,0.9c-0.8,0.6-1.4,1.5-1.7,2.7c-0.3,1.2-0.5,2.5-0.6,3.8l-0.4,5.6l-20-0.8
		c0.5-9.5,3-16.6,7.5-21.1c4.5-4.6,11.4-6.9,20.5-6.9c8.2,0,14.3,2.3,18.2,6.8c3.9,4.5,5.9,10.5,5.9,17.8v37.7c0,3.2,0.1,6,0.2,8.5
		c0.1,2.5,0.3,4.7,0.6,6.6c0.2,1.9,0.4,3.6,0.6,5h-19c-0.3-2.1-0.6-4.3-1-6.7c-0.4-2.4-0.7-4.1-0.8-4.9c-0.9,3.4-2.7,6.4-5.3,9
		C430.1,415.7,426.6,417,422.2,417z M429.9,402c1,0,2-0.2,2.9-0.7c0.9-0.5,1.8-1.1,2.5-1.8c0.7-0.7,1.3-1.4,1.8-2.1v-22.3
		c-2,1.2-3.8,2.4-5.5,3.6c-1.7,1.2-3.1,2.5-4.3,3.8c-1.2,1.4-2.1,2.9-2.8,4.6c-0.7,1.7-1,3.6-1,5.7c0,2.8,0.6,5,1.7,6.7
		C426.3,401.2,427.9,402,429.9,402z"/>
	<path class="st1" d="M492,417c-7,0-12.8-1.7-17.3-5.1c-4.5-3.4-8-8.7-10.6-15.8l14.8-6.2c1.4,3.9,3.1,7,5,9.2
		c2,2.2,4.2,3.3,6.9,3.3c2,0,3.4-0.4,4.4-1.3c1-0.9,1.5-2.1,1.5-3.7c0-2.2-0.7-4.2-2.2-6c-1.5-1.8-4.2-4.2-8-7.4l-7.6-6.4
		c-3.9-3.4-7.1-6.7-9.5-10c-2.4-3.3-3.6-7.4-3.6-12.4c0-4.4,1.1-8.2,3.3-11.5c2.2-3.3,5.1-5.8,8.8-7.6c3.7-1.8,7.7-2.7,12-2.7
		c6.6,0,12.1,1.9,16.3,5.7c4.2,3.8,7.1,8.9,8.6,15.3l-13.7,6.2c-0.6-2.1-1.3-4-2.2-5.8c-0.9-1.8-2.1-3.3-3.6-4.5
		c-1.4-1.2-3.1-1.8-4.8-1.8c-1.7,0-3,0.5-4.1,1.5c-1,1-1.5,2.3-1.5,3.9c0,1.7,0.9,3.5,2.6,5.3c1.7,1.9,4.1,4.1,7.2,6.7l7.6,6.7
		c2.2,2,4.4,4,6.6,6.2c2.1,2.2,3.9,4.6,5.3,7.3c1.4,2.7,2.1,5.7,2.1,9.2c0,4.7-1.1,8.6-3.4,11.9c-2.2,3.3-5.2,5.7-8.9,7.4
		C500.4,416.2,496.3,417,492,417z"/>
	<path class="st1" d="M547.7,416.4c-5.6,0-10-0.9-13.2-2.6c-3.2-1.7-5.4-4.2-6.6-7.5c-1.2-3.3-1.8-7.2-1.8-11.9v-45.9h-8v-13.9h8
		v-24.5h21.4v24.5h11.8v13.9h-11.8v44c0,2.5,0.6,4.3,1.9,5.4c1.3,1.1,3,1.6,5.2,1.6c1.1,0,2.2-0.1,3.2-0.2c1-0.1,2-0.3,2.8-0.4v16.5
		c-1.3,0.2-3.2,0.4-5.6,0.6C552.7,416.3,550.2,416.4,547.7,416.4z"/>
</g>
<g>
	<path class="st1" d="M172.5,536.9V423.5h28.7c4.9,0,9.5,0.4,13.7,1.3s7.9,2.3,11.1,4.5c3.2,2.1,5.7,5.1,7.4,8.9
		c1.7,3.8,2.6,8.7,2.6,14.8c0,4.6-0.7,8.5-2,11.7c-1.3,3.2-3.2,5.8-5.6,7.6c-2.4,1.9-5.4,3.1-9,3.8c4.4,0.7,8.1,2.1,11.1,4.5
		c3,2.3,5.2,5.4,6.7,9.2c1.5,3.8,2.2,8.4,2.2,13.9c0,5.7-0.7,10.6-2.2,14.8c-1.4,4.2-3.6,7.7-6.4,10.4c-2.8,2.7-6.3,4.7-10.4,6.1
		c-4.1,1.4-8.9,2-14.3,2H172.5z M195.6,469.3h5.7c4,0,7-0.6,9.1-1.8c2.1-1.2,3.5-2.9,4.3-5.3c0.8-2.4,1.2-5.3,1.2-8.8
		c0-3.5-0.6-6.2-1.8-8.3c-1.2-2.1-2.9-3.6-5.3-4.5c-2.4-0.9-5.4-1.4-9-1.4h-4.2V469.3z M195.6,520.7h6.4c5.8,0,9.8-1.4,12-4.3
		c2.2-2.9,3.3-7.2,3.3-13c0-4.5-0.5-8-1.5-10.7c-1-2.7-2.7-4.6-5-5.9c-2.3-1.3-5.3-1.9-9.2-1.9h-6V520.7z"/>
	<path class="st1" d="M264.9,538.3c-3.8,0-7.1-1-9.9-2.9c-2.8-2-4.8-4.4-6.2-7.4c-1.4-3-2.1-6.1-2.1-9.2c0-5,1-9.3,2.9-12.7
		c2-3.5,4.5-6.3,7.7-8.7c3.2-2.3,6.7-4.3,10.6-6s7.8-3.2,11.8-4.6v-7.6c0-1.8-0.1-3.3-0.4-4.6c-0.3-1.3-0.8-2.3-1.6-3
		c-0.8-0.7-1.9-1-3.4-1c-1.5,0-2.6,0.3-3.4,0.9c-0.8,0.6-1.4,1.5-1.7,2.7c-0.3,1.2-0.5,2.5-0.6,3.8l-0.4,5.6l-20-0.8
		c0.5-9.5,3-16.6,7.5-21.1c4.5-4.6,11.4-6.9,20.5-6.9c8.2,0,14.3,2.3,18.2,6.8c3.9,4.5,5.9,10.5,5.9,17.8v37.7c0,3.2,0.1,6,0.2,8.5
		c0.1,2.5,0.3,4.7,0.6,6.6c0.2,1.9,0.4,3.6,0.6,5h-19c-0.3-2.1-0.6-4.3-1-6.7c-0.4-2.4-0.7-4.1-0.8-4.9c-0.9,3.4-2.7,6.4-5.3,9
		C272.8,537,269.3,538.3,264.9,538.3z M272.6,523.3c1,0,2-0.2,2.9-0.7c0.9-0.5,1.8-1.1,2.5-1.8c0.7-0.7,1.3-1.4,1.8-2.1v-22.3
		c-2,1.2-3.8,2.4-5.5,3.6c-1.7,1.2-3.1,2.5-4.3,3.8c-1.2,1.4-2.1,2.9-2.8,4.6c-0.7,1.7-1,3.6-1,5.7c0,2.8,0.6,5,1.7,6.7
		C269,522.5,270.6,523.3,272.6,523.3z"/>
	<path class="st1" d="M312.1,536.9V423.5h21.1v113.4H312.1z"/>
	<path class="st1" d="M369.5,537.7c-5.6,0-10-0.9-13.2-2.6c-3.2-1.7-5.4-4.2-6.6-7.5c-1.2-3.3-1.8-7.2-1.8-11.9v-45.9h-8V456h8
		v-24.5h21.4V456h11.8v13.9h-11.8v44c0,2.5,0.6,4.3,1.9,5.4c1.3,1.1,3,1.6,5.2,1.6c1.1,0,2.2-0.1,3.2-0.2c1-0.1,2-0.3,2.8-0.4v16.5
		c-1.3,0.2-3.2,0.4-5.6,0.6C374.5,537.6,372,537.7,369.5,537.7z"/>
	<path class="st1" d="M390.8,442.7v-15.8h21.3v15.8H390.8z M390.9,536.9V456h21.1v80.9H390.9z"/>
	<path class="st1" d="M423.8,536.9V456h20.6v6.7c2.9-3,5.9-5.1,9.2-6.4c3.2-1.3,6.5-1.9,9.9-1.9c3.3,0,6.1,0.8,8.5,2.5
		c2.4,1.6,4.1,4.1,5.2,7.3c3.2-3.5,6.5-6.1,9.9-7.6c3.5-1.5,7-2.2,10.6-2.2c3,0,5.6,0.7,8,2.2c2.3,1.5,4.2,3.7,5.5,6.6
		c1.3,2.9,2,6.4,2,10.6v63h-20.6V476c0-2.6-0.4-4.5-1.3-5.5c-0.9-1.1-2.2-1.6-4-1.6c-1.1,0-2.5,0.3-4.1,1c-1.6,0.7-3.1,1.6-4.5,2.8
		c0,0.2,0,0.4,0,0.6c0,0.2,0,0.4,0,0.7v63h-20.3V476c0-2.6-0.5-4.5-1.4-5.5c-0.9-1.1-2.3-1.6-4.1-1.6c-1.2,0-2.6,0.3-4.1,1
		c-1.5,0.7-3,1.6-4.4,2.8v64.3H423.8z"/>
	<path class="st1" d="M549.8,538.3c-5.8,0-10.7-1-14.8-3.2c-4.1-2.1-7.2-5.2-9.3-9.2c-2.1-4-3.2-9-3.2-15v-29.1c0-6,1.1-11,3.2-15
		c2.1-4,5.2-7.1,9.3-9.2c4.1-2.1,9.1-3.1,14.8-3.1c5.8,0,10.7,1,14.8,3.1c4.1,2.1,7.2,5.2,9.4,9.2c2.1,4,3.2,9,3.2,15V511
		c0,6-1.1,11-3.2,15c-2.1,4-5.3,7.1-9.4,9.2C560.5,537.2,555.6,538.3,549.8,538.3z M550,524c1.8,0,3.1-0.5,4.1-1.5
		c0.9-1,1.5-2.3,1.8-4.1c0.3-1.7,0.4-3.7,0.4-5.9v-32.1c0-2.3-0.1-4.3-0.4-6c-0.3-1.7-0.9-3-1.8-4.1c-0.9-1-2.3-1.5-4.1-1.5
		c-1.8,0-3.1,0.5-4.1,1.5c-0.9,1-1.6,2.4-1.9,4.1c-0.3,1.7-0.5,3.7-0.5,6v32.1c0,2.2,0.2,4.2,0.5,5.9c0.3,1.7,1,3.1,1.9,4.1
		C546.8,523.5,548.2,524,550,524z"/>
	<path class="st1" d="M587.6,536.9V456h21.1v13c2.7-4.8,5.4-8.3,8-10.6c2.7-2.3,5.8-3.4,9.5-3.4c0.7,0,1.2,0,1.8,0.1
		c0.5,0,1,0.2,1.5,0.4v21.3c-1-0.5-2.2-0.9-3.5-1.2c-1.3-0.3-2.7-0.5-4.1-0.5c-2.6,0-5,0.7-7.1,2c-2.1,1.4-4.2,3.3-6,5.8v54H587.6z"
		/>
	<path class="st1" d="M661.8,538.3c-6,0-11-1.1-15-3.3c-4-2.2-7-5.4-9.1-9.7c-2.1-4.2-3.1-9.4-3.1-15.3v-27.2c0-6.2,1-11.3,3.1-15.5
		c2.1-4.2,5.1-7.3,9.2-9.5c4.1-2.2,9.1-3.3,14.8-3.3c6.2,0,11.2,1.1,15,3.4c3.8,2.2,6.6,5.5,8.5,9.8c1.8,4.3,2.7,9.5,2.7,15.7v14.1
		h-32.5v15.7c0,2.3,0.3,4.2,0.8,5.7c0.5,1.5,1.2,2.5,2.2,3.2c0.9,0.6,2.1,0.9,3.5,0.9c1.3,0,2.4-0.3,3.4-0.9c1-0.6,1.7-1.6,2.2-2.9
		c0.5-1.3,0.7-3,0.7-5.2v-7.7h19.6v6.7c0,8.2-2.2,14.5-6.7,18.8C676.7,536.1,670.2,538.3,661.8,538.3z M655.5,487.5h12.7v-8
		c0-2.3-0.2-4.2-0.7-5.7c-0.5-1.4-1.2-2.5-2.2-3.1c-1-0.6-2.2-0.9-3.7-0.9c-1.4,0-2.5,0.3-3.4,1c-0.9,0.7-1.6,1.8-2,3.4
		c-0.5,1.6-0.7,3.9-0.7,6.9V487.5z"/>
</g>
</svg>
