<?xml version="1.0" encoding="utf-8"?>
<!-- Generator: Adobe Illustrator 25.2.3, SVG Export Plug-In . SVG Version: 6.00 Build 0)  -->
<svg version="1.1" xmlns="http://www.w3.org/2000/svg" xmlns:xlink="http://www.w3.org/1999/xlink" x="0px" y="0px"
	 viewBox="0 0 704.7 83.3" style="enable-background:new 0 0 704.7 83.3;" xml:space="preserve">
<style type="text/css">
	.st0{fill:#FFFFFF;}
	.st1{fill:#E10E78;}
</style>
<g id="Layer_2">
	<g>
		<path class="st0" d="M13.8,63.9V21.9H6.1v-6.5h24.2v6.5h-7.6v42.1H13.8z"/>
		<path class="st0" d="M33.1,63.9V15.3h8.2v17.2c1.2-1.2,2.5-2.1,3.9-2.8c1.4-0.7,3-1,4.6-1c1.4,0,2.5,0.4,3.4,1.1
			c0.8,0.7,1.5,1.6,1.9,2.8c0.4,1.2,0.6,2.4,0.6,3.8v27.6h-8.2V38c0-1-0.2-1.8-0.5-2.4c-0.3-0.6-0.9-0.8-1.9-0.8
			c-0.6,0-1.2,0.2-1.9,0.5c-0.7,0.3-1.4,0.7-2,1.3v27.5H33.1z"/>
		<path class="st0" d="M71,64.5c-2.6,0-4.7-0.5-6.4-1.5c-1.6-1-2.8-2.4-3.6-4.3c-0.8-1.9-1.2-4.2-1.2-6.9V41.4c0-2.8,0.4-5.1,1.2-7
			c0.8-1.9,2-3.3,3.7-4.3c1.7-1,3.8-1.4,6.3-1.4c2.8,0,4.9,0.5,6.4,1.6c1.5,1,2.6,2.6,3.3,4.5c0.7,2,1,4.4,1,7.2V47H67.9v6.8
			c0,1.1,0.1,2,0.3,2.8c0.2,0.7,0.6,1.2,1,1.6c0.5,0.3,1.1,0.5,1.7,0.5c0.7,0,1.3-0.2,1.7-0.5c0.4-0.3,0.8-0.8,1-1.5
			c0.2-0.7,0.3-1.5,0.3-2.5v-2.9h7.6v2.3c0,3.5-0.9,6.2-2.6,8.1C77.3,63.5,74.6,64.5,71,64.5z M67.9,42.9h6.1v-3.3
			c0-1.2-0.1-2.2-0.3-2.9c-0.2-0.7-0.5-1.3-1-1.6c-0.4-0.3-1.1-0.5-1.9-0.5c-0.7,0-1.3,0.2-1.7,0.5c-0.4,0.4-0.8,1-1,1.8
			c-0.2,0.8-0.3,2-0.3,3.6V42.9z"/>
		<path class="st0" d="M190.2,64.5c-2.5,0-4.6-0.5-6.2-1.4c-1.6-0.9-2.9-2.3-3.7-4.1c-0.8-1.8-1.2-4-1.2-6.5V40.8
			c0-2.6,0.4-4.7,1.2-6.5c0.8-1.8,2-3.2,3.7-4.1c1.6-0.9,3.7-1.4,6.2-1.4s4.6,0.5,6.3,1.4c1.7,0.9,2.9,2.3,3.7,4.1
			c0.8,1.8,1.2,4,1.2,6.5v11.6c0,2.6-0.4,4.7-1.2,6.5c-0.8,1.8-2.1,3.2-3.7,4.1C194.8,64,192.7,64.5,190.2,64.5z M190.3,58.8
			c0.9,0,1.6-0.3,2-0.8c0.4-0.5,0.7-1.2,0.8-2.1s0.2-1.9,0.2-3V40.2c0-1.1-0.1-2.1-0.2-2.9c-0.1-0.9-0.4-1.6-0.8-2.1
			c-0.4-0.5-1.1-0.8-2-0.8c-0.9,0-1.6,0.3-2,0.8c-0.4,0.5-0.7,1.3-0.9,2.1c-0.1,0.9-0.2,1.9-0.2,2.9V53c0,1.1,0.1,2.1,0.2,3
			c0.1,0.9,0.4,1.6,0.9,2.1C188.7,58.6,189.4,58.8,190.3,58.8z"/>
		<path class="st0" d="M207.5,63.9V35h-3.7v-5.7h3.7V27c0-2.1,0.2-3.9,0.6-5.4c0.4-1.5,1.2-2.7,2.4-3.6c1.2-0.8,3.1-1.3,5.5-1.3
			c0.8,0,1.5,0,2.2,0.1c0.7,0.1,1.4,0.1,2.3,0.3v6.1c-0.3-0.1-0.7-0.1-1.1-0.2c-0.4-0.1-0.8-0.1-1.2-0.1c-1,0-1.6,0.3-2,0.9
			s-0.5,1.5-0.5,2.6v2.8h4.8V35h-4.8v29H207.5z"/>
		<path class="st0" d="M249,64.6c-2.9,0-5.4-0.6-7.3-1.7c-2-1.1-3.4-2.8-4.4-5c-1-2.2-1.6-4.9-1.7-8.1l7.6-1.5
			c0.1,1.9,0.3,3.5,0.7,5c0.4,1.4,1,2.5,1.7,3.3c0.8,0.8,1.8,1.2,3.1,1.2c1.4,0,2.5-0.4,3.1-1.3c0.6-0.9,0.9-2,0.9-3.3
			c0-2.1-0.5-3.9-1.4-5.2c-1-1.4-2.2-2.7-3.8-4.1l-6.1-5.4c-1.7-1.5-3.1-3.1-4.1-5c-1-1.8-1.5-4.1-1.5-6.7c0-3.8,1.1-6.8,3.4-8.9
			c2.2-2.1,5.3-3.1,9.2-3.1c2.3,0,4.2,0.4,5.7,1.1c1.5,0.7,2.7,1.7,3.6,2.9c0.9,1.2,1.6,2.7,2,4.2c0.4,1.6,0.7,3.3,0.8,5l-7.6,1.3
			c-0.1-1.5-0.3-2.9-0.5-4.1c-0.3-1.2-0.7-2.1-1.4-2.8c-0.7-0.7-1.6-1-2.9-1c-1.3,0-2.3,0.4-3,1.3c-0.7,0.9-1.1,1.9-1.1,3.2
			c0,1.6,0.3,3,1,4c0.7,1.1,1.7,2.2,2.9,3.3l6.1,5.3c2,1.7,3.7,3.7,5.1,5.9c1.4,2.3,2.1,5,2.1,8.2c0,2.3-0.5,4.4-1.5,6.2
			s-2.4,3.2-4.3,4.2C253.6,64.1,251.5,64.6,249,64.6z"/>
		<path class="st0" d="M275.2,64.5c-2.5,0-4.6-0.5-6.2-1.4c-1.6-0.9-2.9-2.3-3.7-4.1c-0.8-1.8-1.2-4-1.2-6.5V40.8
			c0-2.6,0.4-4.7,1.2-6.5c0.8-1.8,2-3.2,3.7-4.1c1.6-0.9,3.7-1.4,6.2-1.4s4.6,0.5,6.3,1.4c1.7,0.9,2.9,2.3,3.7,4.1
			c0.8,1.8,1.2,4,1.2,6.5v11.6c0,2.6-0.4,4.7-1.2,6.5c-0.8,1.8-2.1,3.2-3.7,4.1C279.8,64,277.7,64.5,275.2,64.5z M275.2,58.8
			c0.9,0,1.6-0.3,2-0.8c0.4-0.5,0.7-1.2,0.8-2.1s0.2-1.9,0.2-3V40.2c0-1.1-0.1-2.1-0.2-2.9c-0.1-0.9-0.4-1.6-0.8-2.1
			c-0.4-0.5-1.1-0.8-2-0.8c-0.9,0-1.6,0.3-2,0.8c-0.4,0.5-0.7,1.3-0.9,2.1c-0.1,0.9-0.2,1.9-0.2,2.9V53c0,1.1,0.1,2.1,0.2,3
			c0.1,0.9,0.4,1.6,0.9,2.1C273.6,58.6,274.3,58.8,275.2,58.8z"/>
		<path class="st0" d="M296.4,64.5c-1.4,0-2.5-0.4-3.4-1c-0.9-0.7-1.5-1.6-1.9-2.8c-0.4-1.2-0.6-2.4-0.6-3.8V29.3h8.2v26.1
			c0,1,0.2,1.9,0.5,2.4c0.3,0.6,1,0.9,1.9,0.9c0.6,0,1.2-0.2,1.8-0.5c0.6-0.3,1.2-0.7,1.8-1.1V29.3h8.2v34.7h-8.2v-3.3
			c-1.2,1.1-2.4,2-3.8,2.8C299.5,64.1,298,64.5,296.4,64.5z"/>
		<path class="st0" d="M328,64.4c-2.2,0-3.9-0.4-5.2-1.1c-1.3-0.7-2.2-1.8-2.7-3.1c-0.5-1.4-0.8-3-0.8-4.9V34.7h-3.5v-5.4h3.5V18.9
			h8.2v10.4h5.3v5.4h-5.3v19.9c0,1.2,0.3,2,0.8,2.5c0.5,0.5,1.3,0.8,2.3,0.8c0.4,0,0.9,0,1.3-0.1c0.4,0,0.8-0.1,1.2-0.1v6.2
			c-0.7,0.1-1.5,0.2-2.4,0.3C329.9,64.3,329,64.4,328,64.4z"/>
		<path class="st0" d="M336.8,63.9V15.3h8.2v17.2c1.2-1.2,2.5-2.1,3.9-2.8c1.4-0.7,3-1,4.7-1c1.4,0,2.5,0.4,3.4,1.1
			c0.8,0.7,1.5,1.6,1.9,2.8c0.4,1.2,0.6,2.4,0.6,3.8v27.6h-8.2V38c0-1-0.2-1.8-0.5-2.4c-0.3-0.6-0.9-0.8-1.9-0.8
			c-0.6,0-1.2,0.2-1.9,0.5c-0.7,0.3-1.4,0.7-2,1.3v27.5H336.8z"/>
		<path class="st0" d="M374.7,64.5c-2.6,0-4.7-0.5-6.4-1.5c-1.6-1-2.8-2.4-3.6-4.3c-0.8-1.9-1.2-4.2-1.2-6.9V41.4
			c0-2.8,0.4-5.1,1.2-7c0.8-1.9,2-3.3,3.7-4.3c1.7-1,3.8-1.4,6.3-1.4c2.8,0,4.9,0.5,6.5,1.6c1.5,1,2.6,2.6,3.3,4.5s1,4.4,1,7.2V47
			h-13.8v6.8c0,1.1,0.1,2,0.3,2.8s0.6,1.2,1.1,1.6c0.5,0.3,1.1,0.5,1.7,0.5c0.7,0,1.3-0.2,1.7-0.5c0.4-0.3,0.8-0.8,1-1.5
			s0.3-1.5,0.3-2.5v-2.9h7.6v2.3c0,3.5-0.9,6.2-2.6,8.1C380.9,63.5,378.3,64.5,374.7,64.5z M371.6,42.9h6.1v-3.3
			c0-1.2-0.1-2.2-0.3-2.9c-0.2-0.7-0.5-1.3-1-1.6c-0.4-0.3-1.1-0.5-1.9-0.5c-0.7,0-1.3,0.2-1.7,0.5c-0.4,0.4-0.8,1-1,1.8
			c-0.2,0.8-0.3,2-0.3,3.6V42.9z"/>
		<path class="st0" d="M396.4,64.5c-1.6,0-2.9-0.4-4-1.2c-1.1-0.8-2-1.9-2.6-3.1c-0.6-1.3-0.9-2.6-0.9-3.9c0-2.2,0.4-4,1.2-5.5
			c0.8-1.5,1.9-2.7,3.2-3.7c1.3-1,2.8-1.9,4.5-2.6c1.7-0.7,3.4-1.4,5.1-2v-3c0-1-0.1-1.8-0.2-2.5c-0.1-0.7-0.4-1.2-0.8-1.6
			c-0.4-0.4-1-0.5-1.8-0.5c-0.7,0-1.2,0.2-1.6,0.5c-0.4,0.3-0.7,0.8-0.9,1.4c-0.2,0.6-0.3,1.3-0.3,2l-0.1,2.1l-7.7-0.3
			c0.1-4,1.1-6.9,3-8.9c1.9-1.9,4.7-2.9,8.5-2.9c3.5,0,6,1,7.6,2.9c1.6,1.9,2.4,4.5,2.4,7.8v16c0,1.3,0,2.4,0.1,3.5
			c0.1,1,0.1,2,0.2,2.8c0.1,0.8,0.2,1.6,0.3,2.2h-7.3c-0.1-0.8-0.3-1.7-0.4-2.7c-0.2-1-0.3-1.8-0.4-2.2c-0.4,1.4-1.2,2.7-2.3,3.8
			C399.9,63.9,398.4,64.5,396.4,64.5z M399.4,58.4c0.5,0,1-0.1,1.5-0.4c0.5-0.3,0.9-0.6,1.2-0.9s0.6-0.7,0.8-1v-9.7
			c-0.9,0.5-1.7,1-2.5,1.6s-1.5,1.1-2,1.7c-0.6,0.6-1,1.3-1.3,2s-0.5,1.6-0.5,2.5c0,1.3,0.2,2.3,0.8,3
			C397.9,58,398.6,58.4,399.4,58.4z"/>
		<path class="st0" d="M425.1,64.5c-2.9,0-5.3-0.8-7.2-2.3c-1.9-1.6-3.2-3.8-4-6.8l6.1-2.3c0.5,1.9,1.1,3.3,1.9,4.3
			c0.8,1,1.8,1.5,3.1,1.5c1,0,1.7-0.2,2.2-0.7c0.5-0.5,0.7-1.1,0.7-2c0-1-0.3-1.8-0.9-2.6s-1.6-1.7-3-2.9l-4.2-3.5
			c-1.5-1.3-2.8-2.7-3.7-4c-0.9-1.4-1.4-3.1-1.4-5.2c0-1.9,0.4-3.5,1.3-4.8c0.9-1.3,2-2.4,3.5-3.1c1.5-0.7,3.2-1.1,5-1.1
			c2.8,0,5,0.8,6.8,2.5c1.7,1.7,2.8,3.8,3.3,6.5l-5.3,2.3c-0.2-1-0.5-1.8-0.9-2.7c-0.4-0.8-0.9-1.5-1.5-2c-0.6-0.5-1.3-0.8-2.1-0.8
			c-0.8,0-1.5,0.3-2,0.8c-0.5,0.5-0.8,1.2-0.8,2c0,0.7,0.3,1.4,0.9,2.1c0.6,0.7,1.4,1.5,2.5,2.5l4.3,3.8c0.9,0.8,1.8,1.7,2.6,2.6
			c0.8,0.9,1.5,2,2.1,3.1c0.6,1.1,0.8,2.5,0.8,3.9c0,2-0.4,3.7-1.3,5c-0.9,1.4-2.1,2.4-3.7,3.1C428.6,64.1,426.9,64.5,425.1,64.5z"
			/>
		<path class="st0" d="M448.5,64.4c-2.2,0-3.9-0.4-5.2-1.1s-2.2-1.8-2.7-3.1c-0.5-1.4-0.8-3-0.8-4.9V34.7h-3.5v-5.4h3.5V18.9h8.2
			v10.4h5.3v5.4H448v19.9c0,1.2,0.3,2,0.8,2.5c0.5,0.5,1.3,0.8,2.3,0.8c0.4,0,0.9,0,1.3-0.1c0.4,0,0.8-0.1,1.2-0.1v6.2
			c-0.7,0.1-1.5,0.2-2.4,0.3C450.4,64.3,449.5,64.4,448.5,64.4z"/>
		<path class="st0" d="M471.1,63.9V15.3H483c2.2,0,4.1,0.2,5.9,0.6c1.7,0.4,3.2,1.1,4.5,2c1.3,0.9,2.2,2.2,2.9,3.8
			c0.7,1.6,1,3.6,1,6.1c0,2-0.3,3.6-0.8,5c-0.5,1.4-1.3,2.5-2.4,3.3c-1,0.8-2.3,1.4-3.9,1.6c1.9,0.3,3.5,1,4.8,2
			c1.3,1,2.2,2.4,2.8,4c0.6,1.6,0.9,3.6,0.9,5.9c0,2.3-0.3,4.4-0.9,6.2c-0.6,1.8-1.4,3.3-2.6,4.4c-1.1,1.2-2.6,2.1-4.3,2.7
			c-1.7,0.6-3.7,0.9-6,0.9H471.1z M480,35.2h3c1.8,0,3.1-0.3,4.1-0.8c1-0.5,1.6-1.3,2-2.4c0.4-1.1,0.6-2.4,0.6-4.1
			c0-1.7-0.3-3-0.9-4c-0.6-0.9-1.5-1.6-2.6-1.9c-1.2-0.3-2.6-0.5-4.4-0.5H480V35.2z M480,57.7h3.4c2.7,0,4.5-0.6,5.5-1.9
			s1.4-3.3,1.4-6c0-2-0.2-3.5-0.7-4.8c-0.5-1.2-1.2-2.1-2.3-2.7c-1.1-0.6-2.5-0.9-4.2-0.9H480V57.7z"/>
		<path class="st0" d="M509.5,64.5c-1.6,0-2.9-0.4-4-1.2c-1.1-0.8-2-1.9-2.6-3.1c-0.6-1.3-0.9-2.6-0.9-3.9c0-2.2,0.4-4,1.2-5.5
			c0.8-1.5,1.9-2.7,3.2-3.7c1.3-1,2.8-1.9,4.5-2.6c1.7-0.7,3.4-1.4,5.1-2v-3c0-1-0.1-1.8-0.2-2.5c-0.1-0.7-0.4-1.2-0.8-1.6
			c-0.4-0.4-1-0.5-1.8-0.5c-0.7,0-1.2,0.2-1.6,0.5c-0.4,0.3-0.7,0.8-0.9,1.4c-0.2,0.6-0.3,1.3-0.3,2l-0.1,2.1l-7.7-0.3
			c0.1-4,1.1-6.9,3-8.9c1.9-1.9,4.7-2.9,8.5-2.9c3.5,0,6,1,7.6,2.9c1.6,1.9,2.4,4.5,2.4,7.8v16c0,1.3,0,2.4,0.1,3.5
			c0.1,1,0.1,2,0.2,2.8c0.1,0.8,0.2,1.6,0.3,2.2h-7.3c-0.1-0.8-0.3-1.7-0.4-2.7c-0.2-1-0.3-1.8-0.4-2.2c-0.4,1.4-1.2,2.7-2.3,3.8
			C512.9,63.9,511.4,64.5,509.5,64.5z M512.5,58.4c0.5,0,1-0.1,1.5-0.4c0.5-0.3,0.9-0.6,1.2-0.9s0.6-0.7,0.8-1v-9.7
			c-0.9,0.5-1.7,1-2.5,1.6s-1.5,1.1-2,1.7c-0.6,0.6-1,1.3-1.3,2s-0.5,1.6-0.5,2.5c0,1.3,0.2,2.3,0.8,3
			C510.9,58,511.6,58.4,512.5,58.4z"/>
		<path class="st0" d="M529.2,63.9V15.3h8.1v48.6H529.2z"/>
		<path class="st0" d="M552.6,64.4c-2.2,0-3.9-0.4-5.2-1.1s-2.2-1.8-2.7-3.1c-0.5-1.4-0.8-3-0.8-4.9V34.7h-3.5v-5.4h3.5V18.9h8.2
			v10.4h5.3v5.4h-5.3v19.9c0,1.2,0.3,2,0.8,2.5c0.5,0.5,1.3,0.8,2.3,0.8c0.4,0,0.9,0,1.3-0.1c0.4,0,0.8-0.1,1.2-0.1v6.2
			c-0.7,0.1-1.5,0.2-2.4,0.3C554.6,64.3,553.6,64.4,552.6,64.4z"/>
		<path class="st0" d="M561.5,23.7V17h8.2v6.8H561.5z M561.5,63.9V29.3h8.2v34.7H561.5z"/>
		<path class="st0" d="M575,63.9V29.3h7.9v3c1.2-1.3,2.5-2.2,3.9-2.8c1.4-0.6,2.8-0.9,4.3-0.9c1.4,0,2.6,0.3,3.6,1
			c1,0.7,1.8,1.8,2.2,3.2c1.3-1.5,2.7-2.6,4.2-3.3c1.5-0.7,3-1,4.6-1c1.2,0,2.3,0.3,3.3,0.9c1,0.6,1.7,1.5,2.3,2.8
			c0.6,1.2,0.8,2.8,0.8,4.6v27.1h-7.8V37.6c0-1.3-0.2-2.2-0.7-2.7c-0.4-0.5-1.1-0.8-1.9-0.8c-0.6,0-1.4,0.2-2.1,0.5
			c-0.8,0.4-1.5,0.9-2.1,1.5c0,0.1,0,0.2,0,0.3c0,0.1,0,0.2,0,0.4v27.1h-7.7V37.6c0-1.3-0.2-2.2-0.7-2.7c-0.5-0.5-1.1-0.8-1.9-0.8
			c-0.6,0-1.3,0.2-2.1,0.5c-0.8,0.4-1.5,0.9-2.2,1.5v27.8H575z"/>
		<path class="st0" d="M627.4,64.5c-2.5,0-4.6-0.5-6.2-1.4c-1.6-0.9-2.9-2.3-3.7-4.1c-0.8-1.8-1.2-4-1.2-6.5V40.8
			c0-2.6,0.4-4.7,1.2-6.5c0.8-1.8,2-3.2,3.7-4.1c1.6-0.9,3.7-1.4,6.2-1.4c2.5,0,4.6,0.5,6.3,1.4c1.7,0.9,2.9,2.3,3.7,4.1
			c0.8,1.8,1.2,4,1.2,6.5v11.6c0,2.6-0.4,4.7-1.2,6.5c-0.8,1.8-2.1,3.2-3.7,4.1C632,64,629.9,64.5,627.4,64.5z M627.4,58.8
			c0.9,0,1.6-0.3,2-0.8c0.4-0.5,0.7-1.2,0.8-2.1c0.1-0.9,0.2-1.9,0.2-3V40.2c0-1.1-0.1-2.1-0.2-2.9c-0.1-0.9-0.4-1.6-0.8-2.1
			s-1.1-0.8-2-0.8s-1.6,0.3-2,0.8s-0.7,1.3-0.9,2.1c-0.1,0.9-0.2,1.9-0.2,2.9V53c0,1.1,0.1,2.1,0.2,3s0.4,1.6,0.9,2.1
			C625.8,58.6,626.5,58.8,627.4,58.8z"/>
		<path class="st0" d="M643.1,63.9V29.3h8.2v5.3c1.2-2,2.4-3.5,3.6-4.4c1.2-0.9,2.5-1.4,4-1.4c0.2,0,0.5,0,0.6,0
			c0.2,0,0.4,0.1,0.6,0.1v8.5c-0.5-0.2-1-0.4-1.6-0.5c-0.6-0.1-1.2-0.2-1.8-0.2c-1.1,0-2.1,0.3-2.9,0.8c-0.9,0.5-1.7,1.4-2.5,2.6
			v23.9H643.1z"/>
		<path class="st0" d="M673.4,64.5c-2.6,0-4.7-0.5-6.4-1.5c-1.6-1-2.8-2.4-3.6-4.3c-0.8-1.9-1.2-4.2-1.2-6.9V41.4
			c0-2.8,0.4-5.1,1.2-7c0.8-1.9,2-3.3,3.7-4.3c1.7-1,3.8-1.4,6.3-1.4c2.8,0,4.9,0.5,6.5,1.6c1.5,1,2.6,2.6,3.3,4.5s1,4.4,1,7.2V47
			h-13.8v6.8c0,1.1,0.1,2,0.3,2.8s0.6,1.2,1.1,1.6c0.5,0.3,1.1,0.5,1.7,0.5c0.7,0,1.3-0.2,1.7-0.5c0.4-0.3,0.8-0.8,1-1.5
			s0.3-1.5,0.3-2.5v-2.9h7.6v2.3c0,3.5-0.9,6.2-2.6,8.1C679.7,63.5,677,64.5,673.4,64.5z M670.4,42.9h6.1v-3.3
			c0-1.2-0.1-2.2-0.3-2.9c-0.2-0.7-0.5-1.3-1-1.6c-0.4-0.3-1.1-0.5-1.9-0.5c-0.7,0-1.3,0.2-1.7,0.5c-0.4,0.4-0.8,1-1,1.8
			c-0.2,0.8-0.3,2-0.3,3.6V42.9z"/>
		<path class="st0" d="M688.3,63.9V56h7.9v7.9H688.3z M690.8,52.5l-2.5-37.1h8.2l-2.9,37.1H690.8z"/>
	</g>
</g>
<g id="Layer_1">
	<path class="st1" d="M150.5,5.3c-8.5,0-15.9,4.9-19.8,12.2c-3.9-7.2-11.3-12.2-19.8-12.2C98.5,5.3,88.3,16,88.3,29.1
		c0,2.1,0.3,4.2,0.7,6.2c0,0,5.1,22.4,41.6,44.6c36.5-22.3,41.6-44.6,41.6-44.6c0.5-2,0.7-4,0.7-6.2C173.1,16,163,5.3,150.5,5.3z"/>
</g>
</svg>
