<?xml version="1.0" encoding="utf-8"?>
<!-- Generator: Adobe Illustrator 25.2.3, SVG Export Plug-In . SVG Version: 6.00 Build 0)  -->
<svg version="1.1" id="Layer_1" xmlns="http://www.w3.org/2000/svg" xmlns:xlink="http://www.w3.org/1999/xlink" x="0px" y="0px"
	 viewBox="0 0 144.3 29.3" style="enable-background:new 0 0 144.3 29.3;" xml:space="preserve">
<style type="text/css">
	.st0{fill:#FFFFFF;}
</style>
<g>
	<path class="st0" d="M12.5,3.5c0,2,0,6,0,11.9c-0.1,6.3-0.1,9.8-0.1,10.3c0,0.3-0.2,0.5-0.5,0.5c-0.4,0.1-0.8,0.1-1.4,0.1
		c-0.6,0-1,0-1.2,0c-0.3,0-0.4-0.2-0.4-0.7l0-8.9c0-0.2-0.1-0.4-0.4-0.4c-0.2,0-0.7,0-1.6,0c-0.2,0-0.2,0.1-0.3,0.4
		c0,2.4,0,5.3-0.1,8.9c0,0.3-0.3,0.5-0.8,0.6c-0.8,0.1-1.6,0.1-2.4,0.1C3.2,26.3,3,26,3,25.6C2.8,20.8,2.8,13.4,3,3.4
		c0-0.3,0.1-0.5,0.3-0.5h3.1c0.3,0,0.4,0.2,0.4,0.5c0,0,0,1.2,0,3.6c0,1.8,0,3.3,0,4.3c0,0.2,0,0.3,0,0.3c0,0.1,0.1,0.2,0.2,0.2
		c0.4,0.1,0.9,0.1,1.6,0c0.2,0,0.3-0.2,0.3-0.5c0-2.1,0-4.7,0-7.9C8.9,3.1,9,2.9,9.1,3c0.8,0,1.8-0.1,3.1-0.1
		C12.4,2.9,12.5,3.1,12.5,3.5z"/>
	<path class="st0" d="M31.5,25.5c0,0.5-0.1,0.8-0.3,0.8h-0.8c-0.2,0-0.3-0.1-0.4-0.4c-0.1-0.2-0.2-0.6-0.4-1
		c-0.3,0.9-1.4,1.4-3.2,1.4c-2,0-3.4-0.5-4.2-1.5c-0.7-0.9-1.1-2.3-1-4.4l0.1-11.7c0-2.4,0.4-4,1.2-4.8c0.7-0.7,1.9-1.1,3.7-1.1
		c2.1,0,3.6,0.5,4.4,1.6c0.6,0.8,0.9,2.1,0.9,3.9c0.1,1.7,0.1,3,0.1,3.8c0,0.3-0.1,0.5-0.4,0.5c-0.7,0-1.7,0-3.1,0
		c-0.2,0-0.4-0.1-0.4-0.4c0-1.1-0.1-2.2-0.1-3.4c-0.1-1.5-0.5-2.3-1.1-2.3c-0.7,0-1.1,0.8-1.1,2.3v12.1c0,0.3,0.1,0.7,0.3,1.1
		c0.2,0.5,0.5,0.8,0.8,0.8c0.8,0,1.2-1,1.2-3.1v-1.5c0-0.2-0.1-0.4-0.2-0.3h-0.7c-0.2,0-0.3-0.1-0.3-0.3v-2.8c0-0.3,0.1-0.4,0.4-0.4
		c1,0,2.4,0,4.2,0c0.3,0,0.4,0.2,0.4,0.5V25.5z"/>
	<path class="st0" d="M43.1,3.5c0,2,0,6,0,11.9c-0.1,6.3-0.1,9.8-0.1,10.3c0,0.3-0.2,0.5-0.5,0.5c-0.4,0.1-0.8,0.1-1.4,0.1
		c-0.6,0-1,0-1.2,0c-0.3,0-0.4-0.2-0.4-0.7l0-8.9c0-0.2-0.1-0.4-0.4-0.4c-0.2,0-0.7,0-1.6,0c-0.2,0-0.2,0.1-0.3,0.4
		c0,2.4,0,5.3-0.1,8.9c0,0.3-0.3,0.5-0.8,0.6c-0.8,0.1-1.6,0.1-2.4,0.1c-0.3,0-0.4-0.2-0.5-0.7c-0.2-4.8-0.2-12.2-0.1-22.2
		c0-0.3,0.1-0.5,0.3-0.5H37c0.3,0,0.4,0.2,0.4,0.5c0,0,0,1.2,0,3.6c0,1.8,0,3.3,0,4.3c0,0.2,0,0.3,0,0.3c0,0.1,0.1,0.2,0.2,0.2
		c0.4,0.1,0.9,0.1,1.6,0c0.2,0,0.3-0.2,0.3-0.5c0-2.1,0-4.7,0-7.9c0-0.3,0.1-0.4,0.2-0.4c0.8,0,1.8-0.1,3.1-0.1
		C43,2.9,43.1,3.1,43.1,3.5z"/>
	<path class="st0" d="M53.6,25.7c0,0.3-0.3,0.5-0.8,0.5c0.1,0-1.2,0-3.8,0.1c-1.6,0-2.7,0-3.4-0.1c-0.3,0-0.4-0.3-0.4-0.7
		c-0.1-9.8-0.1-17.1-0.1-22c0-0.5,0.2-0.8,0.5-0.7c0.4,0.1,1.4,0.1,3.1,0c0.2,0,0.4,0.1,0.4,0.3c0,0.2,0,0.4,0,0.5
		c0.1,0.8,0.1,3.4,0,7.8c0,4.7,0,8,0,9.9c0,0.4,0.2,0.7,0.7,0.7h3c0.5,0,0.7,0.2,0.7,0.5C53.6,23.2,53.6,24.2,53.6,25.7z"/>
	<path class="st0" d="M65.2,26.3c0,0.1-0.1,0.2-0.3,0.2c-0.3,0-0.8,0-1.5,0c-0.7,0-1.4,0-1.9,0c-0.2,0-0.4-0.6-0.7-1.9
		c-0.2-0.9-0.3-1.8-0.4-2.4c0-0.1-0.1-0.2-0.3-0.2H59c-0.1,0-0.2,0.1-0.3,0.2c-0.2,1.2-0.4,2.5-0.7,4.1c-0.1,0.2-0.2,0.3-0.3,0.3
		h-3.5c-0.3,0-0.4-0.1-0.4-0.3c0.7-3.9,1.3-7.9,2-11.8c1.3-7.6,2.1-11.4,2.3-11.4c1-0.1,2.1-0.1,3.1,0c0.2,0,0.9,3.8,2.1,11.4
		C64,18.3,64.6,22.3,65.2,26.3z M60.1,18.3c-0.3-2.2-0.5-3.3-0.5-3.3c-0.1,0-0.2,0.5-0.3,1.4c-0.1,0.6-0.2,1.2-0.2,1.9
		c0,0.1,0.1,0.1,0.3,0.1c0.2,0,0.4,0,0.6,0C60,18.4,60.1,18.3,60.1,18.3z"/>
	<path class="st0" d="M77,3.5c0-1-0.1,6.4-0.1,22.1c0,0.5-0.2,0.8-0.5,0.8c-0.9,0.2-1.9,0.2-2.9,0c-0.3-0.1-0.6-0.3-0.7-0.6
		c-0.6-2.9-1.4-6.2-2.2-9.8c-0.1-0.3-0.2-0.4-0.3-0.4c-0.1,0-0.2,0.2-0.2,0.6c0,0.4,0,1.8,0,4.1c0,2.3,0,4.1,0,5.4
		c0,0.4-0.2,0.6-0.7,0.7c-0.3,0.1-0.8,0.1-1.3,0.1c-0.7,0-1.1,0-1.2,0c-0.4,0-0.6-0.2-0.6-0.7c-0.1-2.7-0.1-6.7-0.1-12.1
		c0-5.2,0.1-8.6,0.2-10c0-0.5,0.2-0.7,0.4-0.7c0.5,0,1.1,0,1.9,0c1,0,1.5,0.1,1.6,0.1c0.3,0,0.4,0.2,0.5,0.6c1,4.7,1.6,7.7,2,9
		c0.2,0.5,0.3,0.8,0.4,0.8c0.1,0,0.2-0.3,0.1-0.9c-0.1-1.6-0.1-4.5-0.1-8.9c0-0.4,0.2-0.7,0.6-0.6c0.7,0,1.5,0,2.7,0
		C76.8,2.9,77,3.1,77,3.5z"/>
	<path class="st0" d="M89.2,18.3c0,5.4-1.7,8.1-5.1,8.1h-3.9c-0.3,0-0.4-0.2-0.4-0.5V3.2c0-0.3,0.1-0.4,0.3-0.5c0.6,0,2.1,0,4.3,0
		c1.7,0,3,0.8,3.8,2.5c0.6,1.3,0.9,3.1,0.9,5.2V18.3z M85.5,17.2V9.9c0-0.8-0.2-1.6-0.6-2.3c-0.4-0.7-0.9-1.1-1.4-1.1
		c-0.2,0-0.2,0.1-0.2,0.4c0,0.1,0,2,0,5.8c0,3.8,0,6.8,0,9.1c0,0.3,0.1,0.4,0.2,0.4c0.5,0,0.9-0.5,1.4-1.6
		C85.2,19.7,85.5,18.5,85.5,17.2z"/>
</g>
<g>
	<path class="st0" d="M19.6,23.8c0,1.4-1.1,2.5-2.5,2.5c-1.4,0-2.5-1.1-2.5-2.5c0-1.4,1.1-2.5,2.6-2.5
		C18.5,21.3,19.6,22.4,19.6,23.8z M14.8,7.3c-0.1-0.9-0.1-1.7-0.1-2.2c0-1.7,1-2.7,2.5-2.7c1.5,0,2.4,1,2.4,2.5c0,0.4,0,0.4-0.2,2.3
		L18,19.8h-1.8L14.8,7.3z"/>
	<path class="st0" d="M100,6.3c0,0.3-0.2,0.4-0.5,0.4c-0.1,0-0.4,0-0.9,0c-0.4,0-0.8,0-1,0c-0.4,0-0.6,0.1-0.6,0.4l0.1,18.6
		c0,0.3-0.1,0.5-0.3,0.5c-0.7,0.1-1.8,0.1-3.3,0c-0.3,0-0.4-0.2-0.4-0.5l0-18.6c0-0.3-0.1-0.4-0.3-0.4h-2.1c-0.3,0-0.5-0.2-0.5-0.4
		c0,0.2,0-0.2-0.1-1.2c0-0.7,0-1.2,0.1-1.5c0.1-0.5,0.2-0.8,0.5-0.8c2.4,0,5.4,0,8.9,0c0.3,0,0.4,0.2,0.4,0.5
		C100.1,4.6,100.1,5.6,100,6.3z"/>
	<path class="st0" d="M110.5,21.8c0,3.2-1.5,4.8-4.6,4.8c-1.6,0-2.7-0.4-3.4-1.2c-0.7-0.8-1-2-1-3.6V8.4c0-2.1,0.4-3.6,1.3-4.5
		c0.7-0.7,1.7-1.1,3.1-1.1c1.5,0,2.6,0.3,3.3,1c0.9,0.8,1.3,2.2,1.3,4.3V21.8z M106.8,20.5V8.8c0-1.1-0.3-1.7-0.8-1.7
		c-0.6,0-0.9,0.6-0.9,1.7v11.7c0,0.6,0.1,1,0.2,1.2c0.1,0.2,0.4,0.2,0.7,0.2C106.5,21.9,106.8,21.4,106.8,20.5z"/>
	<path class="st0" d="M129.4,3.3c-0.4,3.2-1,6.8-1.7,10.9c-1.3,7.2-2,11.1-2,11.5c-0.1,0.3-0.2,0.5-0.4,0.5c-0.8,0.1-1.7,0.1-2.8,0
		c-0.2,0-0.4-0.2-0.4-0.4c-0.3-3.1-0.7-6.6-1.1-10.4c-0.1-0.4-0.1-0.6-0.2-0.6c-0.1,0-0.2,0.2-0.2,0.5c-0.1,0.8-0.3,2.5-0.6,5.4
		c-0.3,3-0.5,4.7-0.5,5c0,0.3-0.2,0.5-0.5,0.5c-1,0.1-1.9,0.1-2.9,0c-0.3,0-0.4-0.2-0.5-0.5c-0.5-3.2-1.1-6.3-1.6-9.4
		c-0.9-5.4-1.5-9.7-1.8-13c0-0.4,0.1-0.6,0.4-0.6h3.1c0.3,0,0.5,0.3,0.6,0.6c0.1,0.4,0.5,3.8,1.2,10.2c0,0.2,0.1,0.3,0.2,0.3
		c0.1,0,0.1-0.1,0.2-0.3c0.1-1.9,0.5-5.3,1-10.3c0.1-0.4,0.2-0.6,0.5-0.5c0.6,0,1.3,0,1.9,0c0.9,0,1.4,0.3,1.5,0.6
		c0.3,2.6,0.7,6.2,1.2,11c0,0.3,0.1,0.4,0.2,0.4c0.2,0,0.3-0.2,0.3-0.5c0.2-1.2,0.4-3.3,0.8-6.2c0.3-2.9,0.5-4.5,0.5-4.7
		c0.1-0.4,0.3-0.5,0.6-0.5c0.8,0,1.8-0.1,3-0.1C129.4,2.7,129.5,2.9,129.4,3.3z"/>
	<path class="st0" d="M141.4,3.5c0-1-0.1,6.4-0.1,22.1c0,0.5-0.2,0.8-0.5,0.8c-0.9,0.2-1.9,0.2-2.9,0c-0.3-0.1-0.6-0.3-0.7-0.6
		c-0.6-2.9-1.4-6.2-2.2-9.8c-0.1-0.3-0.2-0.4-0.3-0.4c-0.1,0-0.2,0.2-0.2,0.6c0,0.4,0,1.8,0,4.1c0,2.3,0,4.1,0,5.4
		c0,0.4-0.2,0.6-0.7,0.7c-0.3,0.1-0.8,0.1-1.3,0.1c-0.7,0-1.1,0-1.2,0c-0.4,0-0.6-0.2-0.6-0.7c-0.1-2.7-0.1-6.7-0.1-12.1
		c0-5.2,0.1-8.6,0.2-10c0-0.5,0.2-0.7,0.4-0.7c0.5,0,1.1,0,1.9,0c1,0,1.5,0.1,1.6,0.1c0.3,0,0.4,0.2,0.5,0.6c1,4.7,1.6,7.7,2,9
		c0.2,0.5,0.3,0.8,0.4,0.8c0.1,0,0.2-0.3,0.1-0.9c-0.1-1.6-0.1-4.5-0.1-8.9c0-0.4,0.2-0.7,0.6-0.6c0.7,0,1.5,0,2.7,0
		C141.2,2.9,141.4,3.1,141.4,3.5z"/>
</g>
</svg>
