<?xml version="1.0" encoding="utf-8"?>
<!-- Generator: Adobe Illustrator 25.3.1, SVG Export Plug-In . SVG Version: 6.00 Build 0)  -->
<svg version="1.1" id="Layer_1" xmlns="http://www.w3.org/2000/svg" xmlns:xlink="http://www.w3.org/1999/xlink" x="0px" y="0px"
	 viewBox="0 0 275.6 158.6" style="enable-background:new 0 0 275.6 158.6;" xml:space="preserve">
<style type="text/css">
	.Arched_x0020_Green{fill:url(#SVGID_1_);stroke:#FFFFFF;stroke-width:0.25;stroke-miterlimit:1;}
	.st0{fill:#FFFFFF;}
</style>
<linearGradient id="SVGID_1_" gradientUnits="userSpaceOnUse" x1="-7.6123" y1="220.4407" x2="-6.9052" y2="219.7336">
	<stop  offset="0" style="stop-color:#20AC4B"/>
	<stop  offset="0.9831" style="stop-color:#19361A"/>
</linearGradient>
<g>
	<g>
		<path class="st0" d="M33.1,23c0.1,3.6,0.1,10.7,0,21.4c-0.1,11.3-0.2,17.5-0.2,18.4c0,0.5-0.3,0.8-0.9,1c-0.6,0.1-1.4,0.2-2.4,0.1
			c-1.1,0-1.8,0-2,0c-0.4,0-0.7-0.4-0.7-1.3l0-15.9c0-0.4-0.3-0.7-0.7-0.8c-0.3-0.1-1.2-0.1-2.7,0c-0.3,0-0.4,0.3-0.5,0.8
			c0,4.2,0,9.6-0.2,16c0,0.6-0.5,1-1.4,1.1c-1.4,0.2-2.8,0.2-4.2,0.1c-0.5,0-0.8-0.4-0.8-1.2c-0.3-8.6-0.4-21.9-0.1-39.8
			c0-0.6,0.2-0.9,0.5-0.9h5.5c0.5,0,0.8,0.3,0.8,0.9v6.4c-0.1,3.3-0.1,5.8,0,7.7c0,0.3,0,0.5,0,0.6c0,0.2,0.1,0.3,0.3,0.4
			c0.7,0.2,1.6,0.2,2.8-0.1c0.4-0.1,0.5-0.4,0.5-0.9V22.8c0-0.5,0.1-0.7,0.4-0.7c1.4-0.1,3.2-0.1,5.4-0.1
			C32.9,22.1,33.1,22.4,33.1,23"/>
	</g>
	<g>
		<path class="st0" d="M66.3,62.5c0,0.9-0.2,1.4-0.5,1.4h-1.4c-0.3,0-0.5-0.2-0.7-0.7c-0.1-0.4-0.4-1-0.7-1.8
			c-0.6,1.6-2.5,2.4-5.7,2.4c-3.5,0-5.9-0.9-7.3-2.7c-1.2-1.6-1.9-4.2-1.8-7.8l0.1-21c0-4.3,0.7-7.1,2.1-8.6c1.2-1.3,3.4-2,6.5-2
			c3.7,0,6.3,1,7.6,2.9c1,1.4,1.5,3.7,1.6,7c0.1,3.1,0.1,5.3,0.1,6.8c0,0.6-0.2,0.9-0.7,0.9c-1.2,0-3,0-5.5-0.1
			c-0.4,0-0.6-0.3-0.7-0.8c-0.1-2-0.1-4-0.2-6c-0.2-2.7-0.9-4.1-1.9-4.1c-1.2,0-1.9,1.4-1.9,4.1v21.7c0,0.6,0.2,1.2,0.5,2
			c0.4,0.9,0.9,1.4,1.4,1.4c1.3,0,2-1.9,2-5.6v-2.6c0-0.4-0.1-0.7-0.4-0.6h-1.2c-0.3,0-0.5-0.2-0.5-0.5v-5c0-0.5,0.3-0.8,0.8-0.8
			c1.8,0,4.3,0,7.4,0.1c0.5,0,0.8,0.3,0.8,0.9V62.5L66.3,62.5z"/>
	</g>
	<g>
		<path class="st0" d="M86.6,23c0.1,3.6,0.1,10.7,0,21.4c-0.1,11.3-0.2,17.5-0.2,18.4c0,0.5-0.3,0.8-0.9,1c-0.6,0.1-1.4,0.2-2.4,0.1
			c-1.1,0-1.8,0-2,0c-0.4,0-0.7-0.4-0.7-1.3l0.1-15.9c0-0.4-0.3-0.7-0.7-0.8c-0.3-0.1-1.2-0.1-2.7,0c-0.3,0-0.4,0.3-0.5,0.8
			c0,4.2,0,9.6-0.2,16c0,0.6-0.5,1-1.4,1.1c-1.4,0.2-2.8,0.2-4.2,0.1c-0.5,0-0.8-0.4-0.8-1.2c-0.3-8.6-0.4-21.9-0.1-39.8
			c0-0.6,0.2-0.9,0.5-0.9h5.5c0.5,0,0.8,0.3,0.8,0.9v6.4c-0.1,3.3-0.1,5.8,0,7.7c0,0.3,0,0.5,0,0.6c0,0.2,0.1,0.3,0.3,0.4
			c0.7,0.2,1.6,0.2,2.8-0.1c0.4-0.1,0.5-0.4,0.5-0.9V22.8c0-0.5,0.1-0.7,0.4-0.7c1.4-0.1,3.2-0.1,5.4-0.1
			C86.4,22.1,86.6,22.4,86.6,23"/>
	</g>
	<g>
		<path class="st0" d="M105,62.9c0,0.6-0.5,0.9-1.3,0.9c0.2,0-2,0-6.7,0.1c-2.8,0.1-4.8,0-5.9-0.1c-0.5-0.1-0.8-0.5-0.8-1.2
			c-0.2-17.5-0.2-30.7-0.2-39.5c0-1,0.3-1.4,0.9-1.3c0.7,0.1,2.5,0.1,5.5,0c0.4,0,0.7,0.1,0.8,0.5c0,0.3-0.1,0.6-0.1,1
			c0.1,1.5,0.1,6.2,0.1,14c-0.1,8.5-0.1,14.4,0,17.7c0,0.8,0.4,1.2,1.2,1.2h5.3c0.8,0,1.2,0.3,1.2,0.9C105,58.4,105,60.3,105,62.9"
			/>
	</g>
	<g>
		<path class="st0" d="M125.3,63.9c0,0.2-0.1,0.3-0.5,0.3h-2.6c-1.3,0-2.4-0.1-3.3-0.1c-0.3,0-0.7-1.1-1.2-3.4
			c-0.3-1.7-0.6-3.1-0.8-4.3c0-0.2-0.2-0.4-0.6-0.4h-2c-0.2,0-0.4,0.1-0.5,0.4c-0.3,2.1-0.7,4.5-1.2,7.3c-0.1,0.3-0.3,0.5-0.5,0.5
			h-6.2c-0.5,0-0.8-0.2-0.7-0.6c1.1-7,2.3-14.1,3.4-21.2c2.3-13.6,3.6-20.4,4-20.5c1.8-0.1,3.6-0.1,5.5,0c0.4,0,1.6,6.9,3.7,20.5
			C123.2,49.5,124.3,56.7,125.3,63.9 M116.5,49.6c-0.5-3.9-0.8-5.9-1-5.9c-0.2,0-0.4,0.8-0.6,2.5c-0.1,1.1-0.3,2.2-0.4,3.4
			c0,0.1,0.1,0.2,0.5,0.2c0.4,0.1,0.7,0.1,1,0C116.3,49.8,116.5,49.7,116.5,49.6"/>
	</g>
	<g>
		<path class="st0" d="M146.1,23.1c0-1.8-0.1,11.4-0.3,39.6c0,0.9-0.3,1.4-0.8,1.5c-1.6,0.3-3.3,0.3-5.1,0c-0.6-0.1-1-0.5-1.2-1.1
			c-1.1-5.2-2.4-11-3.9-17.6c-0.1-0.5-0.3-0.8-0.6-0.8c-0.2,0-0.3,0.4-0.3,1.1v7.3c0,4.1-0.1,7.3-0.1,9.6c0,0.7-0.4,1.1-1.3,1.3
			c-0.6,0.1-1.3,0.2-2.3,0.2c-1.2,0-1.9-0.1-2.1-0.1c-0.7,0-1-0.4-1.1-1.2c-0.1-4.8-0.2-12.1-0.1-21.8c0.1-9.4,0.2-15.4,0.4-17.9
			c0.1-0.8,0.3-1.3,0.7-1.3c0.8,0,1.9,0,3.3,0c1.7,0.1,2.6,0.1,2.7,0.1c0.5,0,0.8,0.4,0.9,1.1c1.7,8.3,2.9,13.7,3.5,16.1
			c0.3,0.9,0.5,1.4,0.7,1.4c0.2,0,0.3-0.5,0.3-1.6c-0.1-2.8-0.2-8.1-0.2-16c0-0.8,0.3-1.2,1-1.1h4.7C145.7,22,146.1,22.4,146.1,23.1
			"/>
	</g>
	<g>
		<path class="st0" d="M167.4,49.6c0,9.7-3,14.5-9,14.5h-6.8c-0.5,0-0.7-0.3-0.7-0.9V22.6c0-0.5,0.2-0.8,0.6-0.8
			c1.1-0.1,3.6-0.1,7.6-0.1c3,0,5.2,1.5,6.7,4.5c1.1,2.4,1.7,5.5,1.7,9.3V49.6L167.4,49.6z M160.9,47.6V34.7c0-1.4-0.4-2.8-1.1-4.1
			c-0.7-1.3-1.6-1.9-2.4-1.9c-0.3,0-0.4,0.2-0.4,0.7v10.4v16.3c0,0.5,0.1,0.8,0.4,0.8c0.8,0,1.6-0.9,2.4-2.8
			C160.5,52.1,160.9,50,160.9,47.6"/>
	</g>
</g>
<g>
	<g>
		<path class="st0" d="M45.6,59.5c0,2.5-2,4.6-4.4,4.6c-2.5,0-4.5-2-4.5-4.6c0-2.5,2-4.5,4.5-4.5C43.6,55,45.6,57,45.6,59.5
			 M37.1,29.9c-0.1-1.6-0.2-3-0.2-3.9c0-3,1.7-4.9,4.5-4.9c2.6,0,4.2,1.8,4.2,4.6c0,0.8,0,0.8-0.4,4.2l-2.5,22.3h-3.2L37.1,29.9
			L37.1,29.9z"/>
	</g>
	<g>
		<path class="st0" d="M186.4,28.2c0,0.5-0.3,0.7-0.9,0.7c-0.2,0-0.7,0-1.5-0.1h-1.8c-0.7,0-1.1,0.3-1.1,0.8l0.1,33.4
			c0,0.6-0.2,0.8-0.6,0.9c-1.2,0.2-3.1,0.2-5.8-0.1c-0.4,0-0.7-0.3-0.7-0.9l-0.1-33.4c0-0.5-0.2-0.7-0.6-0.7h-3.7
			c-0.5,0-0.8-0.3-0.8-0.7c0,0.4,0-0.3-0.1-2.1c-0.1-1.2,0-2.1,0.1-2.7c0.1-0.9,0.4-1.3,0.9-1.3c4.2,0,9.4,0,15.6,0
			c0.5,0,0.7,0.3,0.8,0.9C186.4,25,186.4,26.8,186.4,28.2"/>
	</g>
	<g>
		<path class="st0" d="M204.6,55.8c0,5.8-2.7,8.7-8.1,8.7c-2.8,0-4.8-0.7-6-2.2c-1.1-1.3-1.7-3.5-1.7-6.5V31.9c0-3.8,0.7-6.4,2.2-8
			c1.2-1.3,3-2,5.5-2c2.6,0,4.5,0.6,5.8,1.7c1.5,1.4,2.3,4,2.3,7.7V55.8L204.6,55.8z M198.2,53.5V32.5c0-2-0.5-3.1-1.4-3.1
			c-1,0-1.6,1-1.6,3.1v20.9c0,1.1,0.1,1.9,0.4,2.1c0.2,0.3,0.6,0.4,1.2,0.4C197.8,56.1,198.2,55.2,198.2,53.5"/>
	</g>
	<g>
		<path class="st0" d="M237.9,22.8c-0.7,5.7-1.7,12.2-2.9,19.5c-2.3,13-3.5,19.8-3.6,20.6c-0.1,0.6-0.4,0.9-0.8,0.9
			c-1.4,0.2-3,0.2-4.9,0c-0.4,0-0.7-0.3-0.8-0.8c-0.5-5.6-1.2-11.8-2-18.7c-0.1-0.7-0.2-1-0.4-1c-0.1,0-0.3,0.3-0.4,1
			c-0.2,1.3-0.6,4.6-1.1,9.6c-0.5,5.4-0.8,8.4-0.9,8.9c-0.1,0.5-0.4,0.8-0.8,0.9c-1.7,0.2-3.4,0.2-5.2,0.1c-0.5,0-0.7-0.3-0.8-0.9
			c-0.9-5.7-1.9-11.3-2.8-16.9c-1.6-9.7-2.7-17.4-3.2-23.3c-0.1-0.7,0.2-1,0.7-1h5.4c0.6,0.1,0.9,0.4,1,1.1
			c0.1,0.7,0.8,6.8,2.2,18.3c0,0.4,0.1,0.6,0.3,0.6c0.1,0,0.3-0.2,0.4-0.6c0.2-3.4,0.8-9.5,1.8-18.4c0.1-0.7,0.4-1,0.9-1h3.3
			c1.6,0.1,2.5,0.4,2.6,1.1c0.5,4.6,1.1,11.1,2,19.6c0,0.5,0.1,0.8,0.3,0.8c0.3,0,0.5-0.3,0.6-1c0.3-2.2,0.8-5.9,1.3-11.1
			c0.6-5.2,0.9-8,0.9-8.4c0.1-0.7,0.5-1,1.1-0.9c1.5-0.1,3.2-0.1,5.2-0.1C237.9,21.7,238,22.1,237.9,22.8"/>
	</g>
	<g>
		<path class="st0" d="M258.8,23.1c0-1.8-0.1,11.4-0.3,39.6c0,0.9-0.3,1.4-0.8,1.5c-1.6,0.3-3.3,0.3-5.1,0c-0.6-0.1-1-0.5-1.2-1.1
			c-1.1-5.2-2.4-11-3.9-17.6c-0.1-0.5-0.3-0.8-0.6-0.8c-0.2,0-0.3,0.4-0.3,1.1v7.3c0,4.1,0,7.3,0,9.6c0,0.7-0.4,1.1-1.3,1.3
			c-0.6,0.1-1.3,0.2-2.3,0.2c-1.2,0-1.9-0.1-2.1-0.1c-0.7,0-1-0.4-1.1-1.2c-0.1-4.8-0.2-12.1-0.1-21.8c0.1-9.4,0.2-15.4,0.4-17.9
			c0.1-0.8,0.3-1.3,0.7-1.3c0.8,0,1.9,0,3.3,0c1.7,0.1,2.6,0.1,2.7,0.1c0.5,0,0.8,0.4,0.9,1.1c1.7,8.3,2.9,13.7,3.5,16.1
			c0.3,0.9,0.5,1.4,0.7,1.4c0.2,0,0.3-0.5,0.3-1.6c-0.1-2.8-0.2-8.1-0.2-16c0-0.8,0.3-1.2,1-1.1h4.7C258.4,22,258.8,22.4,258.8,23.1
			"/>
	</g>
</g>
<g>
	<path class="st0" d="M45.5,110.4c-4.2-8.5-2.4-18.2-6.1-26.7c-2.4,3.9-3.1,8.5-5.2,12.7c-0.3,0.6,0.3,1.5,0,2.1
		c-0.9,1.8-3.1,3.4-5.2,2.4c-1.2-0.3-2.4-1.5-2.4-2.7c-0.3-2.7-0.9-6.3-2.7-7c-1.5-0.6-0.3,2.7-0.9,4.2c-0.9,2.4,0,5.5-0.3,7.9
		c-0.3,2.4-5.2,3.1-6.7,1.5c-3.4-3.6,0.2-9.4,0.9-14.2c0.9-6.1,1-12.2,1.9-18.3c0.3-2.4,4.6-2.4,5.4-0.9c3.4,4.6,3.7,10.3,5.5,15.8
		c0.3,0.3,0.9,1.2,1.2,0.9c4-5.8,4.3-18,13.1-15.9c3.9,11.3,3.6,23.5,7.3,35c0.5,1.6-1.2,2.7-2.7,3.1
		C47.2,110.6,45.8,110.7,45.5,110.4z"/>
	<path class="st0" d="M65.4,109.4c-4.4-0.8-9.4-0.6-11.9-4.7c-1.7-2.2-1-6.7,0.6-8.7c5.1-6.8,13.9-4.7,14-4.9
		c0.6-0.9,0.9-3.7-0.4-3.9c-3.7-0.8-6,0.9-9.3,2c-2.5,0.9-3.1-4.2-2.5-4.7c4.5-3.1,13.8-4.8,16.6,1.1c2.5,5.3-0.5,10.6-0.9,16.4
		c-0.2,3.8-0.6,12.1-4.1,9.8C66.4,111,66.3,109.4,65.4,109.4z M67.1,95.5c-3.6,1.4-9.9,0.3-10,5.7c-0.1,2.7,8.7,4.1,9.2,2.9
		C66.9,100.9,68.5,98.8,67.1,95.5z"/>
	<path class="st0" d="M77.2,87.5c0.8-1.6,3-2.2,4.9-1.4c1.1,0.5,2.4,1.9,1.4,3c-1.9,2.7-0.8,5.5-1.6,7.9c-1.1,3,0.8,5.7,0,8.7
		c0,0.2-0.3,0.8-0.6,0.8c-1.9,0.6-4.3,0.8-4.9-1.1c-1.1-3.6-0.2-7.4-0.2-10.9C76.1,92.1,76.1,89.6,77.2,87.5z M78.5,75.9
		c1.9-1.1,4.5-1.1,5.6,0.6c1.1,1.7-0.6,4.5-1.7,5.1c-1.4,0.7-3.4,0.5-4.8-1.1C76.6,79.2,77.6,76.5,78.5,75.9z"/>
	<path class="st0" d="M88,86.5c0.7-1.9,4.3-1.8,4.9,0.3c0.4,1.6-0.6,3.1-0.6,4.7c0.2,0.2,0.6,1.1,0.6,0.7c2.1-3.4,3.9-7.4,8.4-6.1
		c3.4,5.6,3.1,12.4,3.4,18.7c0.2,1.1,0.2,2.9-0.8,3.2c-1.6,0.4-4,1.1-4.2-0.6c-0.8-5.2-0.2-10.2-1.3-15.3c-3.1,3.4-3.6,8.2-6.1,12.4
		c-0.9,1.6-3.6,1.9-4.4,0c-0.9-2.4-0.2-5.3-0.2-7.9C87.7,93.4,86.9,89.4,88,86.5z"/>
	<path class="st0" d="M119.8,79.3c5.4-6.8,14.6-6.9,22.5-8.9c1.7-0.4,3.5,0.7,4.1,2.1c0.7,1.7-1.3,3.1-2.7,3.4
		c-4.8,1.7-9.9,1.1-14.3,3.4c-0.7,0.4-1.4,1-1.1,1.7c5.1,7.9,19.1,10.6,16.4,20.8c-2.4,8.9-15.4,10.4-23.2,6.8
		c-3.5-1.6-1.4-6.1,1.7-7.5c1.7-0.3,1.7,2.1,3.1,2.4c1.4,0.3,2.7,0,4.1,0.7c2.7,1.3,5.1-0.4,7.5-1.4c1.4-1.1,1.4-2.7,0.7-4.1
		c-4.8-6.1-11.9-8.5-16.7-14.7C120.4,82.2,118.4,81,119.8,79.3z"/>
	<path class="st0" d="M157.7,76.1c0.3-3,4.2-3,6.6-1.5c0.3,0.3,0.6,1.2,0.3,2.1c-1.8,3.9-2.4,8.5-2.4,12.7c3.4-0.3,10-1.9,8.8,2.1
		c-0.9,3.1-6.6,2.6-9.9,2.6c-0.6,3.9,1.5,21.1,1.2,25c-0.1,1.2-0.9,2.1-2.2,2.1c-1.5,0-2.1-0.4-2.6-2c-1.3-3.6-0.9-21.7-2.7-25
		c-2.4,1.8-6.9,3.3-8.1-0.1c-0.3-0.9,0.6-2.1,1.6-2.7c2.4-1.2,5.7-0.9,7.2-2.7c1.2-1.5,0.9-4.2,1.2-6.4
		C157.1,80.3,157.5,78.2,157.7,76.1z"/>
	<path class="st0" d="M173.3,81.9c3.1-2.8,6.9,0.9,6.2,5c3.7-0.6,4.7-5.9,9.1-4.7c1.6,0.6,3.5,1.3,2.2,3.1c-2.5,3.5-6.2,5.1-8.8,8.8
		c-0.9,1.2-0.3,3.1-0.9,4.4c-0.6,0.9-0.6,2.5,0.6,4.1c1.2,1.6,0.9,4.7-0.6,6.2c-1.2,1.9-4.1,1.9-5.3,0.3c-0.9-0.6-1-1.6-0.9-2.8
		c0.2-5-0.3-10.3-0.9-15.3C173.6,87.9,170.5,84.4,173.3,81.9z"/>
	<path class="st0" d="M203,83c4.9,0.7,9.3,5.4,9.2,10.6c-1,3-8,5.6-10.4,7.8c-0.2,0.1-1.4,0.7-1,1.3c2.2,3.8,6.2,2.1,9.7,0.3
		c2.2,1.6,1.1,5.4-1.5,5.7c-2.8,0.4-5.9,1.2-8.9-0.1c-6.2-2.8-7.6-9.9-7.7-15.9C192.3,86.6,196.9,82.1,203,83z M206,92
		c1.4-3.1-3.8-4.7-6.3-3.4c-2.7,1.4-1.9,7.2-0.4,7.4C202.2,95.8,205.1,95,206,92z"/>
	<path class="st0" d="M224.5,83c4.9,0.7,9.3,5.4,9.2,10.6c-1,3-8,5.6-10.4,7.8c-0.2,0.1-1.4,0.7-1,1.3c2.2,3.8,6.2,2.1,9.7,0.3
		c2.2,1.6,1.1,5.4-1.5,5.7c-2.8,0.4-5.9,1.2-8.9-0.1c-6.2-2.8-7.6-9.9-7.7-15.9C213.8,86.6,218.4,82.1,224.5,83z M227.5,92
		c1.4-3.1-3.8-4.7-6.3-3.4c-2.7,1.4-1.9,7.2-0.4,7.4C223.7,95.8,226.6,95,227.5,92z"/>
	<path class="st0" d="M245.4,76.1c0.3-3,4.2-3,6.6-1.5c0.3,0.3,0.6,1.2,0.3,2.1c-1.8,3.9-2.4,8.5-2.4,12.7c3.4-0.3,10-1.9,8.8,2.1
		c-0.9,3.1-6.6,2.6-9.9,2.6c-0.6,3.9,1.5,21.1,1.2,25c-0.1,1.2-0.9,2.1-2.2,2.1c-1.5,0-2.1-0.4-2.6-2c-1.3-3.6-0.9-21.7-2.7-25
		c-2.4,1.8-6.9,3.3-8.1-0.1c-0.3-0.9,0.6-2.1,1.6-2.7c2.4-1.2,5.7-0.9,7.2-2.7c1.2-1.5,0.9-4.2,1.2-6.4
		C244.8,80.3,245.2,78.2,245.4,76.1z"/>
</g>
<g>
	<path class="st0" d="M12.9,136.7h-2.5l-0.8,1.7H8.3l3.6-7.7h1.4l1,7.7h-1.2L12.9,136.7z M12.7,135.5l-0.4-3.1l-1.4,3.1H12.7z"/>
	<path class="st0" d="M18.1,132.9h1.2l-0.1,0.6c0.3-0.3,0.5-0.4,0.7-0.5c0.2-0.1,0.4-0.2,0.7-0.2c0.5,0,0.8,0.2,1.1,0.6
		c0.3,0.4,0.4,1,0.4,1.8c0,1-0.3,1.9-0.8,2.6c-0.4,0.6-0.9,0.9-1.5,0.9c-0.6,0-1-0.3-1.3-0.9l-0.5,2.9h-1.2L18.1,132.9z M18.8,136.1
		c0,0.4,0.1,0.8,0.3,1s0.4,0.4,0.6,0.4c0.2,0,0.4-0.1,0.5-0.2c0.2-0.2,0.3-0.4,0.5-0.8s0.2-0.8,0.2-1.3c0-0.4-0.1-0.7-0.2-1
		c-0.2-0.2-0.4-0.3-0.6-0.3c-0.2,0-0.4,0.1-0.5,0.2c-0.2,0.1-0.3,0.4-0.5,0.8S18.8,135.7,18.8,136.1z"/>
	<path class="st0" d="M23.4,132.9h1.2l-0.2,1.1c0.4-0.8,0.9-1.2,1.4-1.2c0.2,0,0.4,0.1,0.6,0.2l-0.5,1.2c-0.1,0-0.2-0.1-0.4-0.1
		c-0.2,0-0.4,0.1-0.5,0.2c-0.3,0.2-0.5,0.5-0.6,0.8s-0.3,0.9-0.4,1.7l-0.3,1.7h-1.2L23.4,132.9z"/>
	<path class="st0" d="M26.1,136.1c0-0.9,0.2-1.7,0.6-2.3c0.5-0.7,1.1-1,2-1c0.6,0,1.2,0.2,1.5,0.7c0.4,0.4,0.6,1,0.6,1.8
		c0,0.9-0.2,1.7-0.7,2.3c-0.5,0.6-1.1,1-1.9,1c-0.6,0-1.1-0.2-1.5-0.7S26.1,136.9,26.1,136.1z M29.6,135.1c0-0.4-0.1-0.7-0.3-0.9
		s-0.4-0.3-0.7-0.3c-0.2,0-0.4,0.1-0.6,0.2s-0.4,0.4-0.5,0.8s-0.2,0.8-0.2,1.2c0,0.4,0.1,0.7,0.3,1s0.4,0.3,0.7,0.3
		c0.3,0,0.6-0.2,0.9-0.5C29.5,136.4,29.6,135.8,29.6,135.1z"/>
	<path class="st0" d="M31.2,138.7l1.3,0.2c0,0.2,0.1,0.4,0.2,0.5c0.1,0.1,0.3,0.2,0.5,0.2c0.2,0,0.4,0,0.5-0.1
		c0.1-0.1,0.2-0.2,0.3-0.4c0.1-0.2,0.2-0.5,0.2-1l0-0.3c-0.4,0.4-0.9,0.6-1.3,0.6c-0.4,0-0.8-0.2-1.1-0.6c-0.3-0.4-0.4-0.9-0.4-1.7
		c0-0.7,0.1-1.3,0.3-1.9s0.5-0.9,0.8-1.2s0.7-0.4,1-0.4c0.3,0,0.6,0.1,0.8,0.3c0.2,0.2,0.4,0.5,0.6,0.8l0.2-1h1.2l-0.7,4.6
		c-0.1,0.9-0.3,1.5-0.4,1.9c-0.2,0.5-0.4,0.8-0.7,1c-0.3,0.2-0.8,0.3-1.3,0.3c-0.7,0-1.1-0.1-1.4-0.4c-0.4-0.3-0.5-0.8-0.5-1.4
		L31.2,138.7z M32.7,136c0,0.4,0.1,0.8,0.3,1c0.1,0.2,0.3,0.3,0.5,0.3c0.2,0,0.4-0.1,0.6-0.2c0.2-0.2,0.3-0.4,0.5-0.8
		c0.1-0.4,0.2-0.8,0.2-1.2c0-0.4-0.1-0.7-0.3-1c-0.2-0.2-0.4-0.4-0.6-0.4c-0.2,0-0.3,0.1-0.5,0.2c-0.2,0.1-0.3,0.4-0.5,0.8
		S32.7,135.7,32.7,136z"/>
	<path class="st0" d="M37.5,132.9h1.2l-0.2,1.1c0.4-0.8,0.9-1.2,1.4-1.2c0.2,0,0.4,0.1,0.6,0.2l-0.5,1.2c-0.1,0-0.2-0.1-0.4-0.1
		c-0.2,0-0.4,0.1-0.5,0.2c-0.3,0.2-0.5,0.5-0.6,0.8s-0.3,0.9-0.4,1.7l-0.3,1.7h-1.2L37.5,132.9z"/>
	<path class="st0" d="M41.8,134.5l-1.2-0.1c0.1-0.5,0.4-0.9,0.7-1.2s0.8-0.4,1.3-0.4c0.6,0,1,0.1,1.3,0.4s0.4,0.6,0.4,1.1
		c0,0.2,0,0.3,0,0.5c0,0.2-0.1,0.7-0.3,1.5c-0.2,0.7-0.2,1.1-0.2,1.4c0,0.2,0,0.5,0.1,0.8h-1.2c-0.1-0.2-0.1-0.4-0.1-0.6
		c-0.2,0.2-0.4,0.4-0.6,0.6c-0.2,0.1-0.5,0.2-0.7,0.2c-0.4,0-0.7-0.1-0.9-0.4s-0.4-0.7-0.4-1.2c0-0.6,0.1-1,0.4-1.3
		c0.3-0.3,0.8-0.5,1.4-0.5c0.6-0.1,1-0.1,1.2-0.2c0.1-0.2,0.1-0.4,0.1-0.5c0-0.2-0.1-0.3-0.2-0.4s-0.3-0.2-0.5-0.2
		C42.2,133.8,41.9,134,41.8,134.5z M42.9,135.8c-0.1,0-0.2,0-0.3,0.1c-0.6,0.1-0.9,0.2-1.1,0.3c-0.2,0.1-0.3,0.3-0.3,0.6
		c0,0.2,0.1,0.3,0.2,0.4c0.1,0.1,0.2,0.2,0.4,0.2c0.2,0,0.3,0,0.5-0.1c0.1-0.1,0.3-0.2,0.4-0.4s0.2-0.5,0.3-0.8L42.9,135.8z"/>
	<path class="st0" d="M45.8,132.9H47l-0.1,0.7c0.5-0.5,0.9-0.8,1.4-0.8c0.7,0,1.1,0.3,1.2,1c0.2-0.3,0.4-0.5,0.7-0.7
		s0.6-0.3,0.9-0.3c0.4,0,0.6,0.1,0.9,0.3s0.3,0.5,0.3,1c0,0.2,0,0.5-0.1,1l-0.6,3.4h-1.2l0.6-3.4c0.1-0.4,0.1-0.7,0.1-0.7
		c0-0.2,0-0.3-0.1-0.4c-0.1-0.1-0.2-0.1-0.3-0.1c-0.3,0-0.6,0.2-0.8,0.6c-0.2,0.3-0.4,0.8-0.5,1.5l-0.4,2.5h-1.2l0.6-3.4
		c0.1-0.4,0.1-0.6,0.1-0.7c0-0.2,0-0.3-0.1-0.4c-0.1-0.1-0.2-0.1-0.3-0.1c-0.2,0-0.4,0.1-0.6,0.3c-0.2,0.2-0.3,0.4-0.5,0.7
		c-0.1,0.2-0.1,0.5-0.2,1.1l-0.4,2.5h-1.2L45.8,132.9z"/>
	<path class="st0" d="M55.4,136.1c0-0.9,0.2-1.7,0.6-2.3c0.5-0.7,1.1-1,2-1c0.6,0,1.2,0.2,1.5,0.7c0.4,0.4,0.6,1,0.6,1.8
		c0,0.9-0.2,1.7-0.7,2.3c-0.5,0.6-1.1,1-1.9,1c-0.6,0-1.1-0.2-1.5-0.7S55.4,136.9,55.4,136.1z M58.9,135.1c0-0.4-0.1-0.7-0.3-0.9
		s-0.4-0.3-0.7-0.3c-0.2,0-0.4,0.1-0.6,0.2s-0.4,0.4-0.5,0.8s-0.2,0.8-0.2,1.2c0,0.4,0.1,0.7,0.3,1s0.4,0.3,0.7,0.3
		c0.3,0,0.6-0.2,0.9-0.5C58.7,136.4,58.9,135.8,58.9,135.1z"/>
	<path class="st0" d="M63.7,132.9l-0.2,1.1h-0.9l-0.8,4.5h-1.2l0.8-4.5h-0.7l0.2-1.1h0.7l0.1-0.6c0.1-0.5,0.2-0.9,0.3-1.1
		c0.1-0.2,0.2-0.3,0.4-0.4c0.2-0.1,0.4-0.2,0.7-0.2c0.4,0,0.8,0.1,1.2,0.3l-0.2,1.1c-0.3-0.1-0.5-0.2-0.7-0.2c-0.1,0-0.2,0-0.3,0.1
		c-0.1,0.1-0.1,0.3-0.2,0.6l-0.1,0.4H63.7z"/>
	<path class="st0" d="M66.2,134l0.2-1.1H67l0.2-0.9l1.4-1l-0.4,1.9H69l-0.2,1.1H68l-0.4,2.3c-0.1,0.4-0.1,0.7-0.1,0.7
		c0,0.1,0,0.2,0.1,0.3c0.1,0.1,0.2,0.1,0.3,0.1c0.1,0,0.2,0,0.4,0l-0.2,1.1c-0.2,0-0.4,0.1-0.7,0.1c-0.4,0-0.7-0.1-1-0.3
		s-0.3-0.5-0.3-0.9c0-0.2,0.1-0.6,0.2-1.2l0.4-2.2H66.2z"/>
	<path class="st0" d="M70.1,138.4h-1.2l1.3-7.7h1.2l-0.5,2.7c0.3-0.3,0.6-0.5,0.8-0.6c0.2-0.1,0.5-0.2,0.7-0.2
		c0.4,0,0.6,0.1,0.9,0.4s0.3,0.6,0.3,1c0,0.2,0,0.6-0.1,1l-0.6,3.2h-1.2l0.6-3.3c0.1-0.4,0.1-0.6,0.1-0.7c0-0.2,0-0.3-0.1-0.4
		c-0.1-0.1-0.2-0.2-0.4-0.2c-0.2,0-0.4,0.1-0.6,0.3c-0.3,0.2-0.4,0.5-0.6,0.9c-0.1,0.2-0.2,0.6-0.3,1.3L70.1,138.4z"/>
	<path class="st0" d="M78.6,136.1h-3.1v0.1c0,0.4,0.1,0.7,0.3,0.9c0.2,0.2,0.4,0.3,0.6,0.3c0.4,0,0.7-0.3,1-0.8l1.1,0.2
		c-0.2,0.5-0.5,0.9-0.9,1.2c-0.4,0.3-0.8,0.4-1.2,0.4c-0.6,0-1.1-0.2-1.5-0.7c-0.4-0.5-0.6-1.1-0.6-1.9c0-0.9,0.2-1.6,0.7-2.3
		c0.4-0.6,1.1-1,1.9-1c0.5,0,1,0.2,1.3,0.6c0.3,0.4,0.5,1,0.5,1.8C78.7,135.5,78.7,135.8,78.6,136.1z M77.6,135.2l0-0.1
		c0-0.4-0.1-0.7-0.2-0.9c-0.2-0.2-0.4-0.3-0.6-0.3c-0.3,0-0.5,0.1-0.7,0.4c-0.2,0.2-0.3,0.6-0.4,1H77.6z"/>
	<path class="st0" d="M81.7,136l1.2-0.1c0,0.4,0.1,0.7,0.1,0.9c0.1,0.2,0.2,0.3,0.4,0.4c0.2,0.1,0.4,0.1,0.7,0.1
		c0.4,0,0.7-0.1,0.9-0.3s0.3-0.4,0.3-0.7c0-0.2-0.1-0.4-0.2-0.5c-0.1-0.1-0.4-0.3-0.9-0.6c-0.6-0.3-1-0.6-1.2-0.8
		c-0.2-0.2-0.4-0.4-0.5-0.7c-0.1-0.3-0.2-0.6-0.2-0.9c0-0.7,0.2-1.2,0.6-1.6s0.9-0.6,1.6-0.6c0.7,0,1.3,0.2,1.7,0.6
		c0.4,0.4,0.7,1,0.7,1.7l-1.2,0.1c-0.1-0.8-0.4-1.1-1.1-1.1c-0.3,0-0.6,0.1-0.8,0.2c-0.2,0.1-0.2,0.3-0.2,0.6c0,0.2,0.1,0.4,0.2,0.6
		c0.2,0.1,0.5,0.3,0.9,0.6c0.6,0.3,1,0.6,1.2,0.7c0.2,0.2,0.4,0.4,0.5,0.6s0.2,0.5,0.2,0.9c0,0.7-0.2,1.3-0.7,1.8
		c-0.5,0.5-1.1,0.7-1.8,0.7c-0.6,0-1-0.1-1.4-0.4c-0.4-0.2-0.7-0.6-0.8-1S81.7,136.4,81.7,136z"/>
	<path class="st0" d="M87.5,136.1c0-0.9,0.2-1.7,0.6-2.3c0.5-0.7,1.1-1,2-1c0.6,0,1.2,0.2,1.5,0.7c0.4,0.4,0.6,1,0.6,1.8
		c0,0.9-0.2,1.7-0.7,2.3c-0.5,0.6-1.1,1-1.9,1c-0.6,0-1.1-0.2-1.5-0.7S87.5,136.9,87.5,136.1z M91.1,135.1c0-0.4-0.1-0.7-0.3-0.9
		s-0.4-0.3-0.7-0.3c-0.2,0-0.4,0.1-0.6,0.2s-0.4,0.4-0.5,0.8s-0.2,0.8-0.2,1.2c0,0.4,0.1,0.7,0.3,1s0.4,0.3,0.7,0.3
		c0.3,0,0.6-0.2,0.9-0.5C90.9,136.4,91.1,135.8,91.1,135.1z"/>
	<path class="st0" d="M93.6,132.9h1.2l-0.6,3.3c-0.1,0.4-0.1,0.6-0.1,0.7c0,0.2,0,0.3,0.1,0.4c0.1,0.1,0.2,0.2,0.4,0.2
		c0.2,0,0.3-0.1,0.5-0.2c0.2-0.2,0.4-0.4,0.5-0.6c0.1-0.3,0.2-0.6,0.3-1.1l0.5-2.6h1.2l-1,5.5h-1.2l0.1-0.8c-0.5,0.6-1,0.9-1.6,0.9
		c-0.4,0-0.7-0.1-0.9-0.4c-0.2-0.3-0.3-0.6-0.3-1.1c0-0.2,0-0.6,0.1-1.1L93.6,132.9z"/>
	<path class="st0" d="M98.3,134l0.2-1.1h0.6l0.2-0.9l1.4-1l-0.4,1.9h0.8L101,134h-0.8l-0.4,2.3c-0.1,0.4-0.1,0.7-0.1,0.7
		c0,0.1,0,0.2,0.1,0.3c0.1,0.1,0.2,0.1,0.3,0.1c0.1,0,0.2,0,0.4,0l-0.2,1.1c-0.2,0-0.4,0.1-0.7,0.1c-0.4,0-0.7-0.1-1-0.3
		s-0.3-0.5-0.3-0.9c0-0.2,0.1-0.6,0.2-1.2L99,134H98.3z"/>
	<path class="st0" d="M102.2,138.4H101l1.3-7.7h1.2l-0.5,2.7c0.3-0.3,0.6-0.5,0.8-0.6c0.2-0.1,0.5-0.2,0.7-0.2
		c0.4,0,0.6,0.1,0.9,0.4s0.3,0.6,0.3,1c0,0.2,0,0.6-0.1,1l-0.6,3.2h-1.2l0.6-3.3c0.1-0.4,0.1-0.6,0.1-0.7c0-0.2,0-0.3-0.1-0.4
		c-0.1-0.1-0.2-0.2-0.4-0.2c-0.2,0-0.4,0.1-0.6,0.3c-0.3,0.2-0.4,0.5-0.6,0.9c-0.1,0.2-0.2,0.6-0.3,1.3L102.2,138.4z"/>
	<path class="st0" d="M110.8,136.1h-3.1v0.1c0,0.4,0.1,0.7,0.3,0.9c0.2,0.2,0.4,0.3,0.6,0.3c0.4,0,0.7-0.3,1-0.8l1.1,0.2
		c-0.2,0.5-0.5,0.9-0.9,1.2c-0.4,0.3-0.8,0.4-1.2,0.4c-0.6,0-1.1-0.2-1.5-0.7c-0.4-0.5-0.6-1.1-0.6-1.9c0-0.9,0.2-1.6,0.7-2.3
		c0.4-0.6,1.1-1,1.9-1c0.5,0,1,0.2,1.3,0.6c0.3,0.4,0.5,1,0.5,1.8C110.9,135.5,110.8,135.8,110.8,136.1z M109.8,135.2l0-0.1
		c0-0.4-0.1-0.7-0.2-0.9c-0.2-0.2-0.4-0.3-0.6-0.3c-0.3,0-0.5,0.1-0.7,0.4c-0.2,0.2-0.3,0.6-0.4,1H109.8z"/>
	<path class="st0" d="M113,134.5l-1.2-0.1c0.1-0.5,0.4-0.9,0.7-1.2s0.8-0.4,1.3-0.4c0.6,0,1,0.1,1.3,0.4s0.4,0.6,0.4,1.1
		c0,0.2,0,0.3,0,0.5c0,0.2-0.1,0.7-0.3,1.5c-0.2,0.7-0.2,1.1-0.2,1.4c0,0.2,0,0.5,0.1,0.8h-1.2c-0.1-0.2-0.1-0.4-0.1-0.6
		c-0.2,0.2-0.4,0.4-0.6,0.6c-0.2,0.1-0.5,0.2-0.7,0.2c-0.4,0-0.7-0.1-0.9-0.4s-0.4-0.7-0.4-1.2c0-0.6,0.1-1,0.4-1.3
		c0.3-0.3,0.8-0.5,1.4-0.5c0.6-0.1,1-0.1,1.2-0.2c0.1-0.2,0.1-0.4,0.1-0.5c0-0.2-0.1-0.3-0.2-0.4s-0.3-0.2-0.5-0.2
		C113.3,133.8,113.1,134,113,134.5z M114.1,135.8c-0.1,0-0.2,0-0.3,0.1c-0.6,0.1-0.9,0.2-1.1,0.3c-0.2,0.1-0.3,0.3-0.3,0.6
		c0,0.2,0.1,0.3,0.2,0.4c0.1,0.1,0.2,0.2,0.4,0.2c0.2,0,0.3,0,0.5-0.1c0.1-0.1,0.3-0.2,0.4-0.4s0.2-0.5,0.3-0.8L114.1,135.8z"/>
	<path class="st0" d="M116,136.9l1.2-0.2c0.1,0.3,0.2,0.5,0.4,0.7c0.2,0.1,0.4,0.2,0.6,0.2c0.3,0,0.5-0.1,0.6-0.2s0.2-0.3,0.2-0.4
		c0-0.1,0-0.2-0.1-0.3c-0.1-0.1-0.2-0.2-0.5-0.3c-0.7-0.3-1.2-0.5-1.4-0.7c-0.3-0.3-0.4-0.6-0.4-1.1c0-0.5,0.2-1,0.6-1.3
		s0.9-0.5,1.5-0.5c1.1,0,1.7,0.5,1.9,1.4l-1.1,0.2c-0.1-0.4-0.4-0.7-1-0.7c-0.2,0-0.4,0-0.5,0.1c-0.1,0.1-0.2,0.2-0.2,0.4
		c0,0.1,0,0.2,0.1,0.3c0.1,0.1,0.3,0.2,0.7,0.3c0.6,0.2,1,0.4,1.2,0.6c0.3,0.3,0.4,0.6,0.4,1.1c0,0.6-0.2,1-0.6,1.4
		c-0.4,0.4-0.9,0.6-1.5,0.6C117,138.6,116.2,138,116,136.9z"/>
	<path class="st0" d="M121.3,134l0.2-1.1h0.6l0.2-0.9l1.4-1l-0.4,1.9h0.8l-0.2,1.1h-0.8l-0.4,2.3c-0.1,0.4-0.1,0.7-0.1,0.7
		c0,0.1,0,0.2,0.1,0.3c0.1,0.1,0.2,0.1,0.3,0.1c0.1,0,0.2,0,0.4,0l-0.2,1.1c-0.2,0-0.4,0.1-0.7,0.1c-0.4,0-0.7-0.1-1-0.3
		s-0.3-0.5-0.3-0.9c0-0.2,0.1-0.6,0.2-1.2l0.4-2.2H121.3z"/>
	<path class="st0" d="M130.9,135.7l1.3,0.2c-0.3,0.9-0.6,1.6-1.2,2s-1.1,0.7-1.8,0.7c-0.8,0-1.3-0.3-1.8-0.8
		c-0.4-0.5-0.7-1.4-0.7-2.5c0-0.9,0.2-1.8,0.5-2.5c0.3-0.7,0.7-1.3,1.2-1.6c0.5-0.3,1-0.5,1.6-0.5c0.7,0,1.2,0.2,1.6,0.6
		s0.7,1,0.8,1.8l-1.2,0.1c-0.1-0.5-0.2-0.8-0.4-1c-0.2-0.2-0.5-0.3-0.8-0.3c-0.3,0-0.6,0.1-0.9,0.4c-0.3,0.2-0.6,0.6-0.8,1.2
		c-0.2,0.5-0.3,1.2-0.3,1.8c0,0.6,0.1,1.1,0.4,1.4c0.2,0.3,0.5,0.5,0.9,0.5c0.3,0,0.6-0.1,0.9-0.4
		C130.6,136.6,130.8,136.2,130.9,135.7z"/>
	<path class="st0" d="M132.7,138.4l1.3-7.7h1.7c0.6,0,1,0,1.2,0.1c0.4,0.1,0.7,0.3,0.9,0.5c0.3,0.3,0.5,0.6,0.6,1
		c0.2,0.4,0.2,0.9,0.2,1.5c0,0.6-0.1,1.2-0.2,1.8c-0.2,0.5-0.4,1-0.7,1.4s-0.6,0.7-0.9,0.9c-0.3,0.2-0.6,0.3-1,0.4
		c-0.2,0-0.6,0.1-1,0.1H132.7z M134.2,137.2h0.7c0.5,0,0.8,0,1-0.1c0.3-0.1,0.5-0.3,0.7-0.5s0.4-0.6,0.6-1.1c0.2-0.5,0.2-1,0.2-1.6
		c0-0.5-0.1-0.9-0.2-1.2c-0.1-0.3-0.3-0.5-0.5-0.6c-0.2-0.1-0.4-0.1-0.8-0.1h-0.7L134.2,137.2z"/>
	<path class="st0" d="M143.6,135.7l1.3,0.2c-0.3,0.9-0.6,1.6-1.2,2c-0.5,0.4-1.1,0.7-1.8,0.7c-0.8,0-1.3-0.3-1.8-0.8
		c-0.4-0.5-0.7-1.4-0.7-2.5c0-0.9,0.2-1.8,0.5-2.5s0.7-1.3,1.2-1.6c0.5-0.3,1-0.5,1.6-0.5c0.7,0,1.2,0.2,1.6,0.6s0.7,1,0.8,1.8
		l-1.2,0.1c-0.1-0.5-0.2-0.8-0.4-1c-0.2-0.2-0.5-0.3-0.8-0.3c-0.3,0-0.6,0.1-0.9,0.4s-0.6,0.6-0.8,1.2c-0.2,0.5-0.3,1.2-0.3,1.8
		c0,0.6,0.1,1.1,0.4,1.4s0.5,0.5,0.9,0.5c0.3,0,0.6-0.1,0.9-0.4C143.2,136.6,143.4,136.2,143.6,135.7z"/>
	<path class="st0" d="M149.5,134.5l-1.2-0.1c0.1-0.5,0.4-0.9,0.7-1.2s0.8-0.4,1.3-0.4c0.6,0,1,0.1,1.3,0.4c0.3,0.3,0.4,0.6,0.4,1.1
		c0,0.2,0,0.3,0,0.5c0,0.2-0.1,0.7-0.3,1.5c-0.2,0.7-0.2,1.1-0.2,1.4c0,0.2,0,0.5,0.1,0.8h-1.2c-0.1-0.2-0.1-0.4-0.1-0.6
		c-0.2,0.2-0.4,0.4-0.6,0.6c-0.2,0.1-0.5,0.2-0.7,0.2c-0.4,0-0.7-0.1-0.9-0.4c-0.2-0.3-0.4-0.7-0.4-1.2c0-0.6,0.1-1,0.4-1.3
		c0.3-0.3,0.8-0.5,1.4-0.5c0.6-0.1,1-0.1,1.2-0.2c0.1-0.2,0.1-0.4,0.1-0.5c0-0.2-0.1-0.3-0.2-0.4c-0.1-0.1-0.3-0.2-0.5-0.2
		C149.9,133.8,149.6,134,149.5,134.5z M150.7,135.8c-0.1,0-0.2,0-0.3,0.1c-0.6,0.1-0.9,0.2-1.1,0.3s-0.3,0.3-0.3,0.6
		c0,0.2,0.1,0.3,0.2,0.4c0.1,0.1,0.2,0.2,0.4,0.2c0.2,0,0.3,0,0.5-0.1c0.1-0.1,0.3-0.2,0.4-0.4c0.1-0.2,0.2-0.5,0.3-0.8L150.7,135.8
		z"/>
	<path class="st0" d="M153.6,132.9h1.2l-0.1,0.7c0.3-0.3,0.6-0.5,0.8-0.7c0.3-0.1,0.5-0.2,0.8-0.2c0.4,0,0.7,0.1,0.9,0.4
		c0.2,0.3,0.3,0.6,0.3,1c0,0.2,0,0.6-0.1,1.1l-0.5,3.1h-1.2l0.5-3.1c0.1-0.5,0.1-0.8,0.1-0.8c0-0.2,0-0.4-0.1-0.5
		c-0.1-0.1-0.2-0.2-0.4-0.2c-0.2,0-0.3,0.1-0.5,0.2c-0.2,0.2-0.4,0.4-0.6,0.7s-0.2,0.7-0.4,1.5l-0.4,2.3h-1.2L153.6,132.9z"/>
	<path class="st0" d="M162.1,138.4H161l0.1-0.6c-0.2,0.3-0.4,0.5-0.7,0.6s-0.4,0.2-0.7,0.2c-0.5,0-0.8-0.2-1.1-0.6
		c-0.3-0.4-0.4-1-0.4-1.7c0-0.9,0.2-1.7,0.6-2.4s0.9-1,1.6-1c0.6,0,1.1,0.3,1.4,0.9l0.5-2.9h1.2L162.1,138.4z M159.4,136.2
		c0,0.4,0.1,0.7,0.2,0.9c0.2,0.2,0.4,0.3,0.6,0.3c0.2,0,0.4-0.1,0.6-0.2c0.2-0.2,0.3-0.4,0.5-0.8s0.2-0.8,0.2-1.2
		c0-0.4-0.1-0.7-0.3-1c-0.2-0.2-0.4-0.4-0.6-0.4c-0.2,0-0.3,0.1-0.5,0.2c-0.2,0.2-0.3,0.4-0.5,0.8S159.4,135.7,159.4,136.2z"/>
	<path class="st0" d="M165.9,138.4l1.3-7.7h2.2c0.6,0,1,0,1.2,0.1c0.4,0.1,0.7,0.3,0.9,0.6c0.2,0.3,0.3,0.7,0.3,1.1
		c0,0.4-0.1,0.8-0.3,1.1c-0.2,0.3-0.5,0.5-0.9,0.7c0.3,0.1,0.6,0.3,0.7,0.6c0.2,0.3,0.3,0.6,0.3,1c0,0.5-0.1,0.9-0.3,1.3
		c-0.2,0.4-0.5,0.7-0.9,0.9s-0.9,0.3-1.5,0.3H165.9z M167.4,137.2h1.2c0.5,0,0.8,0,1-0.1c0.2-0.1,0.3-0.2,0.5-0.4s0.2-0.4,0.2-0.6
		c0-0.3-0.1-0.5-0.2-0.6c-0.2-0.2-0.4-0.2-0.8-0.2h-1.5L167.4,137.2z M168,133.9h1c0.4,0,0.7,0,0.9-0.1c0.2-0.1,0.3-0.2,0.4-0.4
		c0.1-0.2,0.2-0.4,0.2-0.6c0-0.2,0-0.3-0.1-0.5s-0.2-0.2-0.3-0.2c-0.1,0-0.4-0.1-0.8-0.1h-1L168,133.9z"/>
	<path class="st0" d="M173.9,134.5l-1.2-0.1c0.1-0.5,0.4-0.9,0.7-1.2s0.8-0.4,1.3-0.4c0.6,0,1,0.1,1.3,0.4c0.3,0.3,0.4,0.6,0.4,1.1
		c0,0.2,0,0.3,0,0.5c0,0.2-0.1,0.7-0.3,1.5c-0.2,0.7-0.2,1.1-0.2,1.4c0,0.2,0,0.5,0.1,0.8h-1.2c-0.1-0.2-0.1-0.4-0.1-0.6
		c-0.2,0.2-0.4,0.4-0.6,0.6c-0.2,0.1-0.5,0.2-0.7,0.2c-0.4,0-0.7-0.1-0.9-0.4c-0.2-0.3-0.4-0.7-0.4-1.2c0-0.6,0.1-1,0.4-1.3
		c0.3-0.3,0.8-0.5,1.4-0.5c0.6-0.1,1-0.1,1.2-0.2c0.1-0.2,0.1-0.4,0.1-0.5c0-0.2-0.1-0.3-0.2-0.4c-0.1-0.1-0.3-0.2-0.5-0.2
		C174.3,133.8,174,134,173.9,134.5z M175,135.8c-0.1,0-0.2,0-0.3,0.1c-0.6,0.1-0.9,0.2-1.1,0.3s-0.3,0.3-0.3,0.6
		c0,0.2,0.1,0.3,0.2,0.4c0.1,0.1,0.2,0.2,0.4,0.2c0.2,0,0.3,0,0.5-0.1c0.1-0.1,0.3-0.2,0.4-0.4c0.1-0.2,0.2-0.5,0.3-0.8L175,135.8z"
		/>
	<path class="st0" d="M177.1,138.4l1.3-7.7h1.2l-1.3,7.7H177.1z"/>
	<path class="st0" d="M179.7,134l0.2-1.1h0.6l0.2-0.9l1.4-1l-0.4,1.9h0.8l-0.2,1.1h-0.8l-0.4,2.3c-0.1,0.4-0.1,0.7-0.1,0.7
		c0,0.1,0,0.2,0.1,0.3c0.1,0.1,0.2,0.1,0.3,0.1c0.1,0,0.2,0,0.4,0l-0.2,1.1c-0.2,0-0.4,0.1-0.7,0.1c-0.4,0-0.7-0.1-1-0.3
		c-0.2-0.2-0.3-0.5-0.3-0.9c0-0.2,0.1-0.6,0.2-1.2l0.4-2.2H179.7z"/>
	<path class="st0" d="M183.4,132.9h1.2l-1,5.5h-1.2L183.4,132.9z M183.7,130.8h1.2l-0.2,1.4h-1.2L183.7,130.8z"/>
	<path class="st0" d="M185.7,132.9h1.2l-0.1,0.7c0.5-0.5,0.9-0.8,1.4-0.8c0.7,0,1.1,0.3,1.2,1c0.2-0.3,0.4-0.5,0.7-0.7
		c0.3-0.2,0.6-0.3,0.9-0.3c0.4,0,0.6,0.1,0.9,0.3s0.3,0.5,0.3,1c0,0.2,0,0.5-0.1,1l-0.6,3.4h-1.2l0.6-3.4c0.1-0.4,0.1-0.7,0.1-0.7
		c0-0.2,0-0.3-0.1-0.4c-0.1-0.1-0.2-0.1-0.3-0.1c-0.3,0-0.6,0.2-0.8,0.6c-0.2,0.3-0.4,0.8-0.5,1.5l-0.4,2.5h-1.2l0.6-3.4
		c0.1-0.4,0.1-0.6,0.1-0.7c0-0.2,0-0.3-0.1-0.4c-0.1-0.1-0.2-0.1-0.3-0.1c-0.2,0-0.4,0.1-0.6,0.3c-0.2,0.2-0.3,0.4-0.5,0.7
		c-0.1,0.2-0.1,0.5-0.2,1.1l-0.4,2.5h-1.2L185.7,132.9z"/>
	<path class="st0" d="M192.8,136.1c0-0.9,0.2-1.7,0.6-2.3c0.5-0.7,1.1-1,2-1c0.6,0,1.2,0.2,1.5,0.7s0.6,1,0.6,1.8
		c0,0.9-0.2,1.7-0.7,2.3c-0.5,0.6-1.1,1-1.9,1c-0.6,0-1.1-0.2-1.5-0.7S192.8,136.9,192.8,136.1z M196.3,135.1c0-0.4-0.1-0.7-0.3-0.9
		s-0.4-0.3-0.7-0.3c-0.2,0-0.4,0.1-0.6,0.2s-0.4,0.4-0.5,0.8c-0.1,0.4-0.2,0.8-0.2,1.2c0,0.4,0.1,0.7,0.3,1s0.4,0.3,0.7,0.3
		c0.3,0,0.6-0.2,0.9-0.5C196.2,136.4,196.3,135.8,196.3,135.1z"/>
	<path class="st0" d="M198.9,132.9h1.2l-0.2,1.1c0.4-0.8,0.9-1.2,1.4-1.2c0.2,0,0.4,0.1,0.6,0.2l-0.5,1.2c-0.1,0-0.2-0.1-0.4-0.1
		c-0.2,0-0.4,0.1-0.5,0.2c-0.3,0.2-0.5,0.5-0.6,0.8s-0.3,0.9-0.4,1.7l-0.3,1.7h-1.2L198.9,132.9z"/>
	<path class="st0" d="M205.9,136.1h-3.1v0.1c0,0.4,0.1,0.7,0.3,0.9c0.2,0.2,0.4,0.3,0.6,0.3c0.4,0,0.7-0.3,1-0.8l1.1,0.2
		c-0.2,0.5-0.5,0.9-0.9,1.2c-0.4,0.3-0.8,0.4-1.2,0.4c-0.6,0-1.1-0.2-1.5-0.7c-0.4-0.5-0.6-1.1-0.6-1.9c0-0.9,0.2-1.6,0.7-2.3
		c0.4-0.6,1.1-1,1.9-1c0.5,0,1,0.2,1.3,0.6c0.3,0.4,0.5,1,0.5,1.8C205.9,135.5,205.9,135.8,205.9,136.1z M204.8,135.2l0-0.1
		c0-0.4-0.1-0.7-0.2-0.9c-0.2-0.2-0.4-0.3-0.6-0.3c-0.3,0-0.5,0.1-0.7,0.4c-0.2,0.2-0.3,0.6-0.4,1H204.8z"/>
	<path class="st0" d="M212.4,138.4h-1.2l-0.2-6.4l-1,6.4h-1.2l1.3-7.7h1.8l0.2,5.4l2.1-5.4h1.9l-1.3,7.7h-1.2l1.2-6.4L212.4,138.4z"
		/>
	<path class="st0" d="M217.8,134.5l-1.2-0.1c0.1-0.5,0.4-0.9,0.7-1.2s0.8-0.4,1.3-0.4c0.6,0,1,0.1,1.3,0.4c0.3,0.3,0.4,0.6,0.4,1.1
		c0,0.2,0,0.3,0,0.5c0,0.2-0.1,0.7-0.3,1.5c-0.2,0.7-0.2,1.1-0.2,1.4c0,0.2,0,0.5,0.1,0.8h-1.2c-0.1-0.2-0.1-0.4-0.1-0.6
		c-0.2,0.2-0.4,0.4-0.6,0.6c-0.2,0.1-0.5,0.2-0.7,0.2c-0.4,0-0.7-0.1-0.9-0.4c-0.2-0.3-0.4-0.7-0.4-1.2c0-0.6,0.1-1,0.4-1.3
		c0.3-0.3,0.8-0.5,1.4-0.5c0.6-0.1,1-0.1,1.2-0.2c0.1-0.2,0.1-0.4,0.1-0.5c0-0.2-0.1-0.3-0.2-0.4c-0.1-0.1-0.3-0.2-0.5-0.2
		C218.1,133.8,217.9,134,217.8,134.5z M218.9,135.8c-0.1,0-0.2,0-0.3,0.1c-0.6,0.1-0.9,0.2-1.1,0.3s-0.3,0.3-0.3,0.6
		c0,0.2,0.1,0.3,0.2,0.4c0.1,0.1,0.2,0.2,0.4,0.2c0.2,0,0.3,0,0.5-0.1c0.1-0.1,0.3-0.2,0.4-0.4c0.1-0.2,0.2-0.5,0.3-0.8L218.9,135.8
		z"/>
	<path class="st0" d="M221.9,132.9h1.2l-1,5.5h-1.2L221.9,132.9z M222.2,130.8h1.2l-0.2,1.4H222L222.2,130.8z"/>
	<path class="st0" d="M224.3,132.9h1.2l-0.1,0.7c0.3-0.3,0.6-0.5,0.8-0.7c0.3-0.1,0.5-0.2,0.8-0.2c0.4,0,0.7,0.1,0.9,0.4
		c0.2,0.3,0.3,0.6,0.3,1c0,0.2,0,0.6-0.1,1.1l-0.5,3.1h-1.2l0.5-3.1c0.1-0.5,0.1-0.8,0.1-0.8c0-0.2,0-0.4-0.1-0.5
		c-0.1-0.1-0.2-0.2-0.4-0.2c-0.2,0-0.3,0.1-0.5,0.2c-0.2,0.2-0.4,0.4-0.6,0.7s-0.2,0.7-0.4,1.5l-0.4,2.3h-1.2L224.3,132.9z"/>
	<path class="st0" d="M231.4,136l1.2-0.1c0,0.4,0.1,0.7,0.1,0.9c0.1,0.2,0.2,0.3,0.4,0.4c0.2,0.1,0.4,0.1,0.7,0.1
		c0.4,0,0.7-0.1,0.9-0.3c0.2-0.2,0.3-0.4,0.3-0.7c0-0.2-0.1-0.4-0.2-0.5c-0.1-0.1-0.4-0.3-0.9-0.6c-0.6-0.3-1-0.6-1.2-0.8
		c-0.2-0.2-0.4-0.4-0.5-0.7c-0.1-0.3-0.2-0.6-0.2-0.9c0-0.7,0.2-1.2,0.6-1.6c0.4-0.4,0.9-0.6,1.6-0.6c0.7,0,1.3,0.2,1.7,0.6
		c0.4,0.4,0.7,1,0.7,1.7l-1.2,0.1c-0.1-0.8-0.4-1.1-1.1-1.1c-0.3,0-0.6,0.1-0.8,0.2s-0.2,0.3-0.2,0.6c0,0.2,0.1,0.4,0.2,0.6
		c0.2,0.1,0.5,0.3,0.9,0.6c0.6,0.3,1,0.6,1.2,0.7c0.2,0.2,0.4,0.4,0.5,0.6s0.2,0.5,0.2,0.9c0,0.7-0.2,1.3-0.7,1.8
		c-0.5,0.5-1.1,0.7-1.8,0.7c-0.6,0-1-0.1-1.4-0.4c-0.4-0.2-0.7-0.6-0.8-1S231.4,136.4,231.4,136z"/>
	<path class="st0" d="M237.3,134l0.2-1.1h0.6l0.2-0.9l1.4-1l-0.4,1.9h0.8l-0.2,1.1h-0.8l-0.4,2.3c-0.1,0.4-0.1,0.7-0.1,0.7
		c0,0.1,0,0.2,0.1,0.3c0.1,0.1,0.2,0.1,0.3,0.1c0.1,0,0.2,0,0.4,0l-0.2,1.1c-0.2,0-0.4,0.1-0.7,0.1c-0.4,0-0.7-0.1-1-0.3
		c-0.2-0.2-0.3-0.5-0.3-0.9c0-0.2,0.1-0.6,0.2-1.2l0.4-2.2H237.3z"/>
	<path class="st0" d="M240.8,132.9h1.2l-0.2,1.1c0.4-0.8,0.9-1.2,1.4-1.2c0.2,0,0.4,0.1,0.6,0.2l-0.5,1.2c-0.1,0-0.2-0.1-0.4-0.1
		c-0.2,0-0.4,0.1-0.5,0.2c-0.3,0.2-0.5,0.5-0.6,0.8s-0.3,0.9-0.4,1.7l-0.3,1.7h-1.2L240.8,132.9z"/>
	<path class="st0" d="M247.8,136.1h-3.1v0.1c0,0.4,0.1,0.7,0.3,0.9c0.2,0.2,0.4,0.3,0.6,0.3c0.4,0,0.7-0.3,1-0.8l1.1,0.2
		c-0.2,0.5-0.5,0.9-0.9,1.2c-0.4,0.3-0.8,0.4-1.2,0.4c-0.6,0-1.1-0.2-1.5-0.7c-0.4-0.5-0.6-1.1-0.6-1.9c0-0.9,0.2-1.6,0.7-2.3
		c0.4-0.6,1.1-1,1.9-1c0.5,0,1,0.2,1.3,0.6c0.3,0.4,0.5,1,0.5,1.8C247.9,135.5,247.8,135.8,247.8,136.1z M246.7,135.2l0-0.1
		c0-0.4-0.1-0.7-0.2-0.9c-0.2-0.2-0.4-0.3-0.6-0.3c-0.3,0-0.5,0.1-0.7,0.4c-0.2,0.2-0.3,0.6-0.4,1H246.7z"/>
	<path class="st0" d="M252.7,136.1h-3.1v0.1c0,0.4,0.1,0.7,0.3,0.9c0.2,0.2,0.4,0.3,0.6,0.3c0.4,0,0.7-0.3,1-0.8l1.1,0.2
		c-0.2,0.5-0.5,0.9-0.9,1.2c-0.4,0.3-0.8,0.4-1.2,0.4c-0.6,0-1.1-0.2-1.5-0.7c-0.4-0.5-0.6-1.1-0.6-1.9c0-0.9,0.2-1.6,0.7-2.3
		c0.4-0.6,1.1-1,1.9-1c0.5,0,1,0.2,1.3,0.6c0.3,0.4,0.5,1,0.5,1.8C252.7,135.5,252.7,135.8,252.7,136.1z M251.6,135.2l0-0.1
		c0-0.4-0.1-0.7-0.2-0.9c-0.2-0.2-0.4-0.3-0.6-0.3c-0.3,0-0.5,0.1-0.7,0.4c-0.2,0.2-0.3,0.6-0.4,1H251.6z"/>
	<path class="st0" d="M253.4,134l0.2-1.1h0.6l0.2-0.9l1.4-1l-0.4,1.9h0.8L256,134h-0.8l-0.4,2.3c-0.1,0.4-0.1,0.7-0.1,0.7
		c0,0.1,0,0.2,0.1,0.3c0.1,0.1,0.2,0.1,0.3,0.1c0.1,0,0.2,0,0.4,0l-0.2,1.1c-0.2,0-0.4,0.1-0.7,0.1c-0.4,0-0.7-0.1-1-0.3
		c-0.2-0.2-0.3-0.5-0.3-0.9c0-0.2,0.1-0.6,0.2-1.2l0.4-2.2H253.4z"/>
	<path class="st0" d="M255.9,136.9l1.2-0.2c0.1,0.3,0.2,0.5,0.4,0.7c0.2,0.1,0.4,0.2,0.6,0.2c0.3,0,0.5-0.1,0.6-0.2
		c0.2-0.1,0.2-0.3,0.2-0.4c0-0.1,0-0.2-0.1-0.3c-0.1-0.1-0.2-0.2-0.5-0.3c-0.7-0.3-1.2-0.5-1.4-0.7c-0.3-0.3-0.4-0.6-0.4-1.1
		c0-0.5,0.2-1,0.6-1.3s0.9-0.5,1.5-0.5c1.1,0,1.7,0.5,1.9,1.4l-1.1,0.2c-0.1-0.4-0.4-0.7-1-0.7c-0.2,0-0.4,0-0.5,0.1
		c-0.1,0.1-0.2,0.2-0.2,0.4c0,0.1,0,0.2,0.1,0.3c0.1,0.1,0.3,0.2,0.7,0.3c0.6,0.2,1,0.4,1.2,0.6c0.3,0.3,0.4,0.6,0.4,1.1
		c0,0.6-0.2,1-0.6,1.4s-0.9,0.6-1.5,0.6C256.9,138.6,256.1,138,255.9,136.9z"/>
	<path class="st0" d="M261.2,137h1.2l-0.3,1.4H261L261.2,137z"/>
</g>
</svg>
