<?xml version="1.0" encoding="utf-8"?>
<!-- Generator: Adobe Illustrator 25.2.3, SVG Export Plug-In . SVG Version: 6.00 Build 0)  -->
<svg version="1.1" id="Layer_1" xmlns="http://www.w3.org/2000/svg" xmlns:xlink="http://www.w3.org/1999/xlink" x="0px" y="0px"
	 viewBox="0 0 695 123.7" style="enable-background:new 0 0 695 123.7;" xml:space="preserve">
<style type="text/css">
	.st0{fill:#FFFFFF;}
</style>
<g>
	<path class="st0" d="M191.6,21.5c0.1,7.7,0.1,22.9-0.1,45.6c-0.2,24.2-0.3,37.3-0.3,39.4c0,1.1-0.7,1.8-2,2
		c-1.4,0.3-3.1,0.3-5.2,0.3c-2.4-0.1-3.8-0.1-4.4,0c-1,0.1-1.4-0.8-1.4-2.8l0.1-34c-0.1-1-0.6-1.5-1.4-1.7c-0.7-0.1-2.7-0.1-6,0
		c-0.6,0-0.9,0.6-1,1.7c0.1,9,0,20.4-0.3,34.2c-0.1,1.3-1.1,2.1-3,2.3c-3.1,0.4-6.2,0.5-9.3,0.2c-1.1-0.1-1.7-0.9-1.8-2.5
		c-0.7-18.4-0.8-46.8-0.2-85c0-1.2,0.4-1.9,1.1-1.9h12c1.1,0.1,1.7,0.7,1.7,1.9c0-0.1,0,4.5,0,13.7c-0.1,7-0.1,12.4,0,16.3
		c0,0.7,0,1.1,0.1,1.3c0.1,0.4,0.3,0.7,0.6,0.8c1.6,0.4,3.6,0.4,6-0.1c0.8-0.1,1.2-0.8,1.2-2c0-8,0-18.1,0-30.3c0-1,0.3-1.5,0.8-1.4
		c3-0.1,7-0.2,11.8-0.2C191.2,19.5,191.6,20.2,191.6,21.5z"/>
	<path class="st0" d="M264.3,105.8c0,2-0.4,3-1.1,3h-3.1c-0.7,0-1.1-0.5-1.4-1.4c-0.3-0.9-0.8-2.2-1.4-3.8
		c-1.3,3.5-5.4,5.2-12.4,5.2c-7.6,0-12.9-1.9-16-5.7c-2.7-3.4-4-8.9-4-16.7l0.2-44.8c0.1-9.1,1.6-15.2,4.5-18.5
		c2.7-2.9,7.4-4.3,14.2-4.3c8.2,0,13.7,2.1,16.7,6.2c2.2,2.9,3.3,7.9,3.4,14.9c0.2,6.5,0.3,11.3,0.2,14.4c0,1.2-0.5,1.9-1.4,1.9
		c-2.6,0.1-6.6,0-12-0.1c-0.9,0-1.4-0.5-1.4-1.6c-0.1-4.3-0.3-8.6-0.4-12.9c-0.5-5.9-1.9-8.8-4.1-8.8c-2.7,0-4.1,2.9-4.1,8.7v46.4
		c0,1.2,0.4,2.6,1.1,4.2c0.9,2,1.9,3,3.1,3c2.9,0,4.4-4,4.4-11.9v-5.6c0-1-0.3-1.4-0.9-1.3h-2.6c-0.7,0-1-0.3-1-1V64.4
		c0-1.1,0.6-1.7,1.7-1.7c3.9,0,9.3,0,16.2,0.1c1.1,0,1.7,0.6,1.7,1.9L264.3,105.8L264.3,105.8z"/>
	<path class="st0" d="M308.5,21.5c0.1,7.7,0.1,22.9-0.1,45.6c-0.2,24.2-0.3,37.3-0.3,39.4c0,1.1-0.7,1.8-2,2
		c-1.4,0.3-3.1,0.3-5.2,0.3c-2.4-0.1-3.8-0.1-4.4,0c-1,0.1-1.4-0.8-1.4-2.8l0.1-34c-0.1-1-0.6-1.5-1.4-1.7c-0.7-0.1-2.7-0.1-6,0
		c-0.6,0-0.9,0.6-1,1.7c0.1,9,0,20.4-0.3,34.2c-0.1,1.3-1.1,2.1-3,2.3c-3.1,0.4-6.2,0.5-9.3,0.2c-1.1-0.1-1.7-0.9-1.8-2.5
		c-0.7-18.4-0.8-46.8-0.2-85c0-1.2,0.4-1.9,1.1-1.9h12c1.1,0.1,1.7,0.7,1.7,1.9c0-0.1,0,4.5,0,13.7c-0.1,7-0.1,12.4,0,16.3
		c0,0.7,0,1.1,0.1,1.3c0.1,0.4,0.3,0.7,0.6,0.8c1.6,0.4,3.6,0.4,6-0.1c0.8-0.1,1.2-0.8,1.2-2c0-8,0-18.1,0-30.3c0-1,0.3-1.5,0.8-1.4
		c3-0.1,7-0.2,11.8-0.2C308.2,19.5,308.5,20.2,308.5,21.5z"/>
	<path class="st0" d="M348.7,106.6c-0.1,1.3-1,2-2.9,2c0.4,0-4.4,0.1-14.6,0.2c-6.2,0.1-10.5,0.1-12.9-0.2c-1.1-0.1-1.7-1-1.7-2.6
		c-0.4-37.4-0.5-65.5-0.3-84.3c0-2.1,0.7-3,2-2.8c1.5,0.2,5.5,0.2,11.9,0c1-0.1,1.5,0.3,1.7,1.1c-0.1,0.7-0.1,1.4-0.1,2.1
		c0.2,3.2,0.3,13.2,0.1,29.9c-0.1,18.1-0.1,30.7,0.1,37.8c0.1,1.7,0.9,2.6,2.5,2.6H346c1.8,0,2.7,0.7,2.7,2
		C348.8,96.9,348.8,101,348.7,106.6z"/>
	<path class="st0" d="M393.1,108.7c0.1,0.4-0.3,0.7-1,0.7c-1,0-2.9,0-5.7,0c-2.8-0.1-5.2-0.1-7.3-0.1c-0.7,0-1.5-2.4-2.5-7.2
		c-0.7-3.6-1.3-6.7-1.7-9.3c-0.1-0.5-0.5-0.8-1.2-0.8h-4.3c-0.5,0-0.8,0.3-1,0.8c-0.7,4.5-1.5,9.7-2.6,15.5c-0.3,0.7-0.6,1-1,1
		h-13.6c-1.2,0-1.7-0.4-1.4-1.3c2.5-15,5-30.1,7.5-45.2c4.9-29.1,7.9-43.6,8.8-43.7c4-0.2,7.9-0.2,11.9,0c0.9,0.1,3.6,14.6,8.2,43.7
		C388.5,78.1,390.8,93.4,393.1,108.7z M373.9,78.1c-1.1-8.4-1.8-12.6-2.1-12.6c-0.4,0-0.8,1.8-1.3,5.4c-0.3,2.4-0.6,4.7-0.9,7.2
		c-0.1,0.2,0.3,0.4,1,0.5c0.8,0.1,1.5,0.1,2.2,0.1C373.5,78.6,373.9,78.4,373.9,78.1z"/>
	<path class="st0" d="M438.4,21.6c-0.1-3.8-0.3,24.3-0.6,84.4c0,1.9-0.6,3-1.8,3.2c-3.5,0.6-7.2,0.6-11.1,0c-1.3-0.2-2.2-1-2.5-2.3
		c-2.4-11-5.3-23.5-8.5-37.5c-0.3-1.1-0.7-1.7-1.3-1.7c-0.4,0-0.7,0.8-0.7,2.3s0,6.7,0,15.6c-0.1,8.8-0.1,15.6-0.1,20.5
		c0,1.5-0.9,2.4-2.8,2.7c-1.2,0.3-2.9,0.4-5,0.3c-2.7-0.1-4.2-0.1-4.5-0.1c-1.5,0.1-2.2-0.8-2.3-2.5c-0.3-10.3-0.4-25.8-0.2-46.5
		c0.1-20,0.4-32.8,0.8-38.2c0.1-1.8,0.6-2.7,1.4-2.8c1.8-0.1,4.2-0.1,7.2,0c3.7,0.1,5.7,0.2,6,0.2c1,0,1.7,0.8,2,2.3
		c3.7,17.8,6.3,29.3,7.7,34.4c0.6,2,1.1,3,1.4,3c0.5,0,0.7-1.1,0.6-3.4c-0.3-6-0.4-17.3-0.4-34.1c0-1.7,0.7-2.5,2.2-2.4
		c2.5,0,5.9,0,10.3,0C437.7,19.2,438.4,20,438.4,21.6z"/>
	<path class="st0" d="M484.9,78.1c0,20.7-6.5,31-19.6,31h-14.8c-1,0-1.5-0.6-1.5-1.9V20.5c0-1.1,0.4-1.7,1.3-1.8
		c2.4-0.1,7.9-0.2,16.5-0.1c6.5-0.1,11.4,3.1,14.5,9.6c2.4,5.1,3.6,11.7,3.6,19.9V78.1z M470.8,73.9V46.3c0-3.1-0.8-6-2.5-8.8
		c-1.6-2.8-3.4-4.1-5.3-4.1c-0.6,0-0.9,0.5-0.9,1.5c0,0.3,0,7.7,0,22.2c0,14.4,0,26,0,34.9c0,1.1,0.3,1.7,0.8,1.7
		c1.8,0.1,3.5-1.9,5.2-6C469.9,83.6,470.8,79,470.8,73.9z"/>
</g>
<g>
	<path class="st0" d="M219,99.3c0,5.4-4.3,9.7-9.6,9.7c-5.4,0-9.7-4.3-9.7-9.7c0-5.4,4.3-9.6,9.9-9.6C214.7,89.6,219,94,219,99.3z
		 M200.4,36.2c-0.3-3.4-0.5-6.5-0.5-8.3c0-6.4,3.8-10.4,9.7-10.4c5.7,0,9.2,3.8,9.2,9.7c0,1.6,0,1.6-0.8,8.9l-5.4,47.6h-6.9
		L200.4,36.2z"/>
	<path class="st0" d="M526.5,32.5c0,1-0.6,1.5-1.9,1.5c-0.5,0-1.6,0-3.3-0.1c-1.6,0-2.9,0-4,0c-1.5,0-2.3,0.6-2.3,1.7l0.2,71.3
		c0,1.2-0.4,1.8-1.2,1.9c-2.6,0.4-6.8,0.3-12.6-0.1c-1-0.1-1.4-0.7-1.4-1.9l-0.1-71.3c0-1-0.4-1.5-1.3-1.5h-8.2
		c-1.2-0.1-1.8-0.6-1.8-1.5c0,0.8-0.1-0.7-0.2-4.5c-0.2-2.5-0.1-4.4,0.2-5.8c0.3-1.9,1-2.9,2-2.9c9.1-0.1,20.5-0.1,34.1,0
		c1,0,1.6,0.7,1.7,2C526.5,25.7,526.6,29.5,526.5,32.5z"/>
	<path class="st0" d="M566.3,91.4c0,12.4-5.9,18.5-17.7,18.5c-6.1,0-10.5-1.5-13.1-4.6c-2.5-2.9-3.8-7.5-3.8-13.9v-51
		c0-8,1.6-13.7,4.9-17.1c2.7-2.8,6.7-4.2,12-4.2c5.7,0,9.9,1.2,12.6,3.6c3.4,3.1,5.1,8.5,5.1,16.3V91.4z M552.3,86.5V41.8
		c0-4.3-1-6.5-3.1-6.5c-2.3,0-3.4,2.2-3.4,6.6v44.7c0,2.4,0.3,4,0.8,4.6s1.4,0.9,2.6,0.9C551.3,92.1,552.3,90.2,552.3,86.5z"/>
	<path class="st0" d="M639,20.9c-1.5,12.2-3.7,26.1-6.4,41.6c-4.9,27.7-7.5,42.3-7.8,43.9c-0.2,1.2-0.8,1.9-1.6,2
		c-3,0.4-6.6,0.4-10.7,0c-1-0.1-1.5-0.6-1.7-1.7c-1.2-11.9-2.6-25.2-4.3-39.8c-0.2-1.5-0.5-2.2-0.8-2.2s-0.6,0.7-0.9,2.1
		c-0.5,2.9-1.3,9.7-2.3,20.5c-1.1,11.5-1.8,17.9-1.9,19c-0.2,1.1-0.8,1.8-1.8,1.9c-3.7,0.4-7.4,0.5-11.3,0.1c-1-0.1-1.6-0.7-1.8-1.9
		c-2.1-12.1-4.1-24.1-6.2-36.1c-3.5-20.7-5.8-37.2-7.1-49.7c-0.2-1.5,0.3-2.2,1.4-2.2h11.8c1.2,0.1,2,1,2.2,2.4
		c0.2,1.5,1.8,14.5,4.7,39.1c0.1,0.8,0.3,1.2,0.7,1.2c0.3,0,0.6-0.4,0.8-1.3c0.4-7.2,1.8-20.2,4-39.3c0.2-1.5,0.9-2.2,2-2.1
		c2.4,0,4.9,0,7.3,0c3.6,0.1,5.5,1,5.6,2.4c1,9.8,2.5,23.8,4.4,41.9c0.1,1.1,0.3,1.7,0.7,1.7c0.6,0,1-0.7,1.2-2.1
		c0.7-4.7,1.7-12.6,2.9-23.8c1.2-11.1,1.9-17.1,2-17.9c0.2-1.4,1-2.1,2.4-2c3.2-0.1,7-0.2,11.4-0.2C638.9,18.7,639.2,19.5,639,20.9z
		"/>
	<path class="st0" d="M684.5,21.6c-0.1-3.8-0.3,24.3-0.6,84.4c0,1.9-0.6,3-1.8,3.2c-3.5,0.6-7.2,0.6-11.1,0c-1.3-0.2-2.2-1-2.5-2.3
		c-2.4-11-5.3-23.5-8.5-37.5c-0.3-1.1-0.7-1.7-1.3-1.7c-0.4,0-0.7,0.8-0.7,2.3s0,6.7,0,15.6c-0.1,8.8-0.1,15.6-0.1,20.5
		c0,1.5-0.9,2.4-2.8,2.7c-1.3,0.3-2.9,0.4-5,0.3c-2.6-0.1-4.2-0.1-4.5-0.1c-1.5,0.1-2.2-0.8-2.3-2.5c-0.3-10.3-0.4-25.8-0.2-46.5
		c0.1-20,0.4-32.8,0.8-38.2c0.1-1.8,0.6-2.7,1.4-2.8c1.8-0.1,4.2-0.1,7.2,0c3.7,0.1,5.7,0.2,6,0.2c1,0,1.7,0.8,2,2.3
		c3.7,17.8,6.3,29.3,7.7,34.4c0.6,2,1.1,3,1.4,3c0.5,0,0.7-1.1,0.6-3.4c-0.3-6-0.4-17.3-0.4-34.1c0-1.7,0.7-2.5,2.2-2.4
		c2.5,0,5.9,0,10.3,0C683.8,19.2,684.5,20,684.5,21.6z"/>
</g>
<g>
	<path class="st0" d="M22,18.7H10c-0.7,0-1.1,0.6-1.1,1.9c-0.6,38.2-0.5,66.5,0.2,85c0.1,1.6,0.7,2.5,1.8,2.5
		c3.1,0.3,6.2,0.2,9.3-0.2c1.7-0.2,2.6-0.8,2.9-1.8v-87C22.7,18.9,22.4,18.8,22,18.7z"/>
</g>
<path class="st0" d="M118.7,9.6c-12.5,0-23.4,7.2-29.1,17.9C83.9,16.9,73,9.6,60.5,9.6c-18.4,0-33.3,15.7-33.3,35
	c0,3.1,0.4,6.2,1.1,9.1c0,0,7.5,32.9,61.2,65.7c53.7-32.8,61.2-65.7,61.2-65.7c0.7-2.9,1.1-5.9,1.1-9.1
	C152,25.3,137.1,9.6,118.7,9.6z"/>
</svg>
